<?xml version="1.0" encoding="UTF-8" standalone="no"?>
<!-- Created with Inkscape (http://www.inkscape.org/) -->

<svg
   width="23.275053mm"
   height="63.034332mm"
   viewBox="0 0 87.968707 238.24"
   version="1.1"
   id="svg1"
   xmlns="http://www.w3.org/2000/svg"
   xmlns:svg="http://www.w3.org/2000/svg">
  <defs
     id="defs1" />
  <g
     id="layer1"
     transform="translate(-108,-158)">
    <path
       id="path159"
       d="m 108,202.84 v -0.375 h 1.15625 v 0.375 z m 3.80469,0.59375 c 0.19531,0.125 0.375,0.21875 0.53125,0.28125 l -0.125,0.28125 c -0.21875,-0.0742 -0.4375,-0.19922 -0.65625,-0.375 -0.23047,0.125 -0.48047,0.1875 -0.75,0.1875 -0.28125,0 -0.53906,-0.0625 -0.76562,-0.1875 -0.23047,-0.13281 -0.40625,-0.32031 -0.53125,-0.5625 -0.11719,-0.25 -0.17188,-0.52344 -0.17188,-0.82813 0,-0.3125 0.0547,-0.58593 0.17188,-0.82812 0.125,-0.25 0.30078,-0.4375 0.53125,-0.5625 0.22656,-0.13281 0.48437,-0.20313 0.76562,-0.20313 0.28125,0 0.53516,0.0703 0.76563,0.20313 0.22656,0.13672 0.39843,0.32422 0.51562,0.5625 0.125,0.24219 0.1875,0.51172 0.1875,0.8125 0,0.26172 -0.043,0.49609 -0.125,0.70312 -0.0742,0.19922 -0.1875,0.3711 -0.34375,0.51563 z m -0.89062,-0.51563 c 0.23828,0.0625 0.42968,0.15625 0.57812,0.28125 0.23828,-0.21875 0.35938,-0.54687 0.35938,-0.98437 0,-0.23828 -0.043,-0.45313 -0.125,-0.64063 -0.0859,-0.1875 -0.21094,-0.33203 -0.375,-0.4375 -0.15625,-0.10156 -0.33985,-0.15625 -0.54688,-0.15625 -0.30469,0 -0.55469,0.10547 -0.75,0.3125 -0.19922,0.21094 -0.29687,0.52344 -0.29687,0.9375 0,0.39844 0.0977,0.70313 0.29687,0.92188 0.19531,0.21094 0.44531,0.3125 0.75,0.3125 0.14453,0 0.28516,-0.0234 0.42188,-0.0781 -0.13672,-0.082 -0.27344,-0.14062 -0.40625,-0.17187 z m 0,0"
       style="fill:#000000;fill-opacity:1;fill-rule:nonzero;stroke:none"
       aria-label="   -Q" />
    <path
       id="path160"
       d="m 134.58204,196.71891 h -0.375 v -2.40625 c -0.0859,0.0859 -0.20313,0.17187 -0.35938,0.26562 -0.14843,0.0859 -0.27734,0.14844 -0.39062,0.1875 v -0.35937 c 0.20703,-0.10157 0.39062,-0.22266 0.54687,-0.35938 0.16407,-0.14453 0.28125,-0.28516 0.34375,-0.42187 h 0.23438 z m 0,0"
       style="fill:#000000;fill-opacity:1;fill-rule:nonzero;stroke:none"
       aria-label="1" />
    <path
       id="path161"
       d="m 135.14454,225.16032 v 0.35937 h -2.03125 c 0,-0.0937 0.0156,-0.17969 0.0469,-0.26562 0.0508,-0.13282 0.13282,-0.26954 0.25,-0.40625 0.11329,-0.13282 0.28125,-0.28907 0.5,-0.46875 0.33204,-0.26954 0.55469,-0.48438 0.67188,-0.64063 0.11328,-0.16406 0.17187,-0.32031 0.17187,-0.46875 0,-0.14453 -0.0547,-0.26953 -0.15625,-0.375 -0.10546,-0.10156 -0.24609,-0.15625 -0.42187,-0.15625 -0.17969,0 -0.32422,0.0586 -0.4375,0.17188 -0.10547,0.10546 -0.15625,0.25781 -0.15625,0.45312 l -0.39063,-0.0469 c 0.0195,-0.28907 0.11719,-0.50782 0.29688,-0.65625 0.17578,-0.15625 0.41016,-0.23438 0.70312,-0.23438 0.28907,0 0.51954,0.0859 0.6875,0.25 0.17579,0.16797 0.26563,0.37109 0.26563,0.60938 0,0.125 -0.0273,0.25 -0.0781,0.375 -0.043,0.11718 -0.125,0.24218 -0.25,0.375 -0.11718,0.125 -0.30859,0.30468 -0.57812,0.53125 -0.23047,0.1875 -0.375,0.32031 -0.4375,0.39062 -0.0625,0.0625 -0.11719,0.13281 -0.15625,0.20313 z m 0,0"
       style="fill:#000000;fill-opacity:1;fill-rule:nonzero;stroke:none"
       aria-label="2" />
    <path
       id="path162"
       d="m 126.5883,197.84 4.79998,9.60001"
       style="fill:none;stroke:#000000;stroke-width:0.64;stroke-linecap:round;stroke-linejoin:round;stroke-miterlimit:10;stroke-dasharray:none;stroke-opacity:1" />
    <path
       id="path163"
       d="m 131.38828,193.04 v 4.8"
       style="fill:none;stroke:#000000;stroke-width:0.64;stroke-linecap:round;stroke-linejoin:round;stroke-miterlimit:10;stroke-dasharray:none;stroke-opacity:1" />
    <path
       id="path164"
       d="m 131.38828,207.44001 v 4.79998"
       style="fill:none;stroke:#000000;stroke-width:0.64;stroke-linecap:round;stroke-linejoin:round;stroke-miterlimit:10;stroke-dasharray:none;stroke-opacity:1" />
    <path
       id="path165"
       d="m 131.38828,221.84 v 4.8"
       style="fill:none;stroke:#000000;stroke-width:0.64;stroke-linecap:round;stroke-linejoin:round;stroke-miterlimit:10;stroke-dasharray:none;stroke-opacity:1" />
    <path
       id="path166"
       d="m 131.38828,212.23999 v 1.28"
       style="fill:none;stroke:#000000;stroke-width:0.64;stroke-linecap:round;stroke-linejoin:round;stroke-miterlimit:10;stroke-dasharray:none;stroke-opacity:1" />
    <path
       id="path167"
       d="m 131.38828,213.51999 h 2.24001"
       style="fill:none;stroke:#000000;stroke-width:0.64;stroke-linecap:round;stroke-linejoin:round;stroke-miterlimit:10;stroke-dasharray:none;stroke-opacity:1" />
    <path
       id="path168"
       d="M 133.62829,213.51999 V 215.76"
       style="fill:none;stroke:#000000;stroke-width:0.64;stroke-linecap:round;stroke-linejoin:round;stroke-miterlimit:10;stroke-dasharray:none;stroke-opacity:1" />
    <path
       id="path169"
       d="m 133.62829,215.76 h -2.24001"
       style="fill:none;stroke:#000000;stroke-width:0.64;stroke-linecap:round;stroke-linejoin:round;stroke-miterlimit:10;stroke-dasharray:none;stroke-opacity:1" />
    <path
       id="path170"
       d="m 131.38828,215.76 v 1.28"
       style="fill:none;stroke:#000000;stroke-width:0.64;stroke-linecap:round;stroke-linejoin:round;stroke-miterlimit:10;stroke-dasharray:none;stroke-opacity:1" />
    <path
       id="path171"
       d="m 131.79297,220.71891 v -3.07813 h 0.40625 v 3.07813 z m 2.80469,-1.34375 -2.03125,0.875 v -0.375 l 1.60938,-0.67188 -1.60938,-0.67187 v -0.375 l 2.03125,0.85937 z m 0,0"
       style="fill:#000000;fill-opacity:1;fill-rule:nonzero;stroke:none"
       aria-label="I&gt;   " />
    <path
       id="path172"
       d="m 126.5883,212.23999 h 9.59999"
       style="fill:none;stroke:#000000;stroke-width:0.64;stroke-linecap:round;stroke-linejoin:round;stroke-miterlimit:10;stroke-dasharray:none;stroke-opacity:1" />
    <path
       id="path173"
       d="m 126.5883,217.04 h 9.59999"
       style="fill:none;stroke:#000000;stroke-width:0.64;stroke-linecap:round;stroke-linejoin:round;stroke-miterlimit:10;stroke-dasharray:none;stroke-opacity:1" />
    <path
       id="path174"
       d="m 126.5883,221.84 h 9.59999"
       style="fill:none;stroke:#000000;stroke-width:0.64;stroke-linecap:round;stroke-linejoin:round;stroke-miterlimit:10;stroke-dasharray:none;stroke-opacity:1" />
    <path
       id="path175"
       d="M 126.5883,212.23999 V 221.84"
       style="fill:none;stroke:#000000;stroke-width:0.64;stroke-linecap:round;stroke-linejoin:round;stroke-miterlimit:10;stroke-dasharray:none;stroke-opacity:1" />
    <path
       id="path176"
       d="M 136.18829,212.23999 V 221.84"
       style="fill:none;stroke:#000000;stroke-width:0.64;stroke-linecap:round;stroke-linejoin:round;stroke-miterlimit:10;stroke-dasharray:none;stroke-opacity:1" />
    <path
       id="path177"
       d="m 115.38828,199.44 v 6.4"
       style="fill:none;stroke:#000000;stroke-width:0.64;stroke-linecap:round;stroke-linejoin:round;stroke-miterlimit:10;stroke-dasharray:none;stroke-opacity:1" />
    <path
       id="path178"
       d="m 115.38828,202.64 h 3.20002"
       style="fill:none;stroke:#000000;stroke-width:0.64;stroke-linecap:round;stroke-linejoin:round;stroke-miterlimit:10;stroke-dasharray:none;stroke-opacity:1" />
    <path
       id="path179"
       d="m 118.5883,199.44 v 6.4"
       style="fill:none;stroke:#000000;stroke-width:0.64;stroke-linecap:round;stroke-linejoin:round;stroke-miterlimit:10;stroke-dasharray:none;stroke-opacity:1" />
    <path
       id="path180"
       d="m 121.78829,199.44 v 6.4"
       style="fill:none;stroke:#000000;stroke-width:0.64;stroke-linecap:round;stroke-linejoin:round;stroke-miterlimit:10;stroke-dasharray:none;stroke-opacity:1" />
    <path
       id="path181"
       d="m 124.98829,199.44 v 6.4"
       style="fill:none;stroke:#000000;stroke-width:0.64;stroke-linecap:round;stroke-linejoin:round;stroke-miterlimit:10;stroke-dasharray:none;stroke-opacity:1" />
    <path
       id="path182"
       d="m 118.5883,205.84 h 6.39999"
       style="fill:none;stroke:#000000;stroke-width:0.64;stroke-linecap:round;stroke-linejoin:round;stroke-miterlimit:10;stroke-dasharray:none;stroke-opacity:1" />
    <path
       id="path183"
       d="m 118.5883,202.64 h 6.39999"
       style="fill:none;stroke:#000000;stroke-width:0.64;stroke-linecap:round;stroke-linejoin:round;stroke-miterlimit:10;stroke-dasharray:none;stroke-opacity:1" />
    <path
       id="path184"
       d="m 118.5883,199.44 h 6.39999"
       style="fill:none;stroke:#000000;stroke-width:0.64;stroke-linecap:round;stroke-linejoin:round;stroke-miterlimit:10;stroke-dasharray:none;stroke-opacity:1" />
    <path
       id="path185"
       d="m 124.98829,205.84 h 0.16 V 206 h -0.16 z"
       style="fill:#000000;fill-opacity:1;fill-rule:nonzero;stroke:none" />
    <path
       id="path186"
       d="m 124.98829,202.64 h 3.2"
       style="fill:none;stroke:#000000;stroke-width:0.64;stroke-linecap:round;stroke-linejoin:round;stroke-miterlimit:10;stroke-dasharray:none;stroke-opacity:1" />
    <path
       id="path187"
       d="m 121.78829,205.84 v 1.60001"
       style="fill:none;stroke:#000000;stroke-width:0.64;stroke-linecap:round;stroke-linejoin:round;stroke-miterlimit:10;stroke-dasharray:none;stroke-opacity:1" />
    <path
       id="path188"
       d="m 121.78829,209.04 v 2.24"
       style="fill:none;stroke:#000000;stroke-width:0.64;stroke-linecap:round;stroke-linejoin:round;stroke-miterlimit:10;stroke-dasharray:none;stroke-opacity:1" />
    <path
       id="path189"
       d="M 121.78829,212.87999 V 216.08"
       style="fill:none;stroke:#000000;stroke-width:0.64;stroke-linecap:round;stroke-linejoin:round;stroke-miterlimit:10;stroke-dasharray:none;stroke-opacity:1" />
    <path
       id="path190"
       d="m 121.78829,214.48 h 1.59999"
       style="fill:none;stroke:#000000;stroke-width:0.64;stroke-linecap:round;stroke-linejoin:round;stroke-miterlimit:10;stroke-dasharray:none;stroke-opacity:1" />
    <path
       id="path191"
       d="m 124.98829,214.48 h 1.60001"
       style="fill:none;stroke:#000000;stroke-width:0.64;stroke-linecap:round;stroke-linejoin:round;stroke-miterlimit:10;stroke-dasharray:none;stroke-opacity:1" />
    <path
       id="path192"
       d="m 121.78829,217.68 v 1.6"
       style="fill:none;stroke:#000000;stroke-width:0.64;stroke-linecap:round;stroke-linejoin:round;stroke-miterlimit:10;stroke-dasharray:none;stroke-opacity:1" />
    <path
       id="path193"
       d="m 121.78829,219.28 h 1.59999"
       style="fill:none;stroke:#000000;stroke-width:0.64;stroke-linecap:round;stroke-linejoin:round;stroke-miterlimit:10;stroke-dasharray:none;stroke-opacity:1" />
    <path
       id="path194"
       d="m 124.98829,219.28 h 1.60001"
       style="fill:none;stroke:#000000;stroke-width:0.64;stroke-linecap:round;stroke-linejoin:round;stroke-miterlimit:10;stroke-dasharray:none;stroke-opacity:1" />
    <path
       id="path249"
       d="m 110.29688,298.7775 0.39062,-0.0312 c 0.0195,0.14844 0.0625,0.27344 0.125,0.375 0.0625,0.0937 0.16016,0.17187 0.29688,0.23437 0.14453,0.0625 0.30469,0.0937 0.48437,0.0937 0.15625,0 0.28907,-0.0195 0.40625,-0.0625 0.125,-0.0508 0.21094,-0.11328 0.26563,-0.1875 0.0625,-0.082 0.0937,-0.17187 0.0937,-0.26562 0,-0.10156 -0.0312,-0.19141 -0.0937,-0.26563 -0.0547,-0.0703 -0.14063,-0.1289 -0.26563,-0.17187 -0.0859,-0.0312 -0.26562,-0.0781 -0.54687,-0.14063 -0.28125,-0.0703 -0.48047,-0.14062 -0.59375,-0.20312 -0.14844,-0.082 -0.25781,-0.17578 -0.32813,-0.28125 -0.0742,-0.11328 -0.10937,-0.24219 -0.10937,-0.39063 0,-0.15625 0.0391,-0.30078 0.125,-0.4375 0.0937,-0.13281 0.22265,-0.23437 0.39062,-0.29687 0.16407,-0.0703 0.35157,-0.10938 0.5625,-0.10938 0.22657,0 0.42578,0.0391 0.59375,0.10938 0.17578,0.0742 0.3125,0.18359 0.40625,0.32812 0.0937,0.13672 0.14453,0.29688 0.15625,0.48438 l -0.39062,0.0156 c -0.0234,-0.1875 -0.0937,-0.32812 -0.21875,-0.42187 -0.11719,-0.10156 -0.29297,-0.15625 -0.53125,-0.15625 -0.24219,0 -0.41797,0.0469 -0.53125,0.14062 -0.11719,0.0859 -0.17188,0.1875 -0.17188,0.3125 0,0.11719 0.0391,0.21094 0.125,0.28125 0.0703,0.0742 0.27344,0.14844 0.60938,0.21875 0.33203,0.0742 0.55469,0.13672 0.67187,0.1875 0.1875,0.0859 0.32032,0.19532 0.40625,0.32813 0.082,0.125 0.125,0.26562 0.125,0.42187 0,0.16797 -0.0469,0.32422 -0.14062,0.46875 -0.0937,0.14844 -0.23047,0.26172 -0.40625,0.34375 -0.17969,0.0703 -0.375,0.10938 -0.59375,0.10938 -0.27344,0 -0.50781,-0.0391 -0.70313,-0.10938 -0.1875,-0.082 -0.33593,-0.20703 -0.4375,-0.375 -0.10547,-0.16406 -0.16406,-0.34765 -0.17187,-0.54687 z m 3.6289,0.64062 0.0469,0.34375 c -0.10547,0.0195 -0.19922,0.0312 -0.28125,0.0312 -0.13672,0 -0.24609,-0.0234 -0.32813,-0.0625 -0.0742,-0.0391 -0.125,-0.0976 -0.15625,-0.17187 -0.0234,-0.0703 -0.0312,-0.22266 -0.0312,-0.45313 v -1.28125 h -0.28125 v -0.29687 h 0.28125 v -0.54688 l 0.375,-0.21875 v 0.76563 h 0.375 v 0.29687 h -0.375 v 1.3125 c 0,0.10547 0.004,0.17188 0.0156,0.20313 0.008,0.0312 0.0312,0.0586 0.0625,0.0781 0.0312,0.0117 0.0703,0.0156 0.125,0.0156 0.0391,0 0.0977,-0.004 0.17187,-0.0156 z m 1.74219,0.0625 c -0.13672,0.125 -0.27344,0.21485 -0.40625,0.26563 -0.125,0.0391 -0.26172,0.0625 -0.40625,0.0625 -0.25,0 -0.44531,-0.0547 -0.57812,-0.17188 -0.125,-0.125 -0.1875,-0.28125 -0.1875,-0.46875 0,-0.10156 0.0195,-0.19531 0.0625,-0.28125 0.0508,-0.0937 0.11718,-0.16406 0.20312,-0.21875 0.082,-0.0625 0.17578,-0.10937 0.28125,-0.14062 0.0703,-0.008 0.17969,-0.0234 0.32813,-0.0469 0.30078,-0.0391 0.52343,-0.0859 0.67187,-0.14062 0,-0.0391 0,-0.0703 0,-0.0937 0,-0.15625 -0.0391,-0.26563 -0.10937,-0.32813 -0.0937,-0.082 -0.23438,-0.125 -0.42188,-0.125 -0.17969,0 -0.30859,0.0312 -0.39062,0.0937 -0.0859,0.0625 -0.14844,0.17188 -0.1875,0.32813 l -0.375,-0.0469 c 0.0312,-0.15625 0.082,-0.28125 0.15625,-0.375 0.082,-0.10156 0.19531,-0.17968 0.34375,-0.23437 0.14453,-0.0508 0.3125,-0.0781 0.5,-0.0781 0.19531,0 0.35156,0.0274 0.46875,0.0781 0.125,0.043 0.21093,0.10156 0.26562,0.17187 0.0508,0.0625 0.0859,0.14844 0.10938,0.25 0.0195,0.0625 0.0312,0.17969 0.0312,0.34375 v 0.5 c 0,0.35547 0.004,0.57813 0.0156,0.67188 0.0195,0.0937 0.0508,0.18359 0.0937,0.26562 h -0.39062 c -0.043,-0.082 -0.0703,-0.17578 -0.0781,-0.28125 z m -0.0312,-0.84375 c -0.13672,0.0625 -0.33984,0.11719 -0.60937,0.15625 -0.15625,0.0234 -0.27344,0.0469 -0.34375,0.0781 -0.0625,0.0234 -0.10938,0.0586 -0.14063,0.10937 -0.0312,0.0547 -0.0469,0.11719 -0.0469,0.1875 0,0.0937 0.0352,0.17969 0.10937,0.25 0.0703,0.0625 0.17969,0.0937 0.32813,0.0937 0.14453,0 0.27343,-0.0312 0.39062,-0.0937 0.11328,-0.0625 0.19531,-0.14843 0.25,-0.26562 0.0391,-0.082 0.0625,-0.20703 0.0625,-0.375 z m 0.85547,1.125 v -2.23437 h 0.34375 v 0.34375 c 0.082,-0.15625 0.16016,-0.25781 0.23438,-0.3125 0.0703,-0.0508 0.14843,-0.0781 0.23437,-0.0781 0.13281,0 0.26563,0.043 0.39063,0.125 l -0.125,0.34375 c -0.0937,-0.0508 -0.1875,-0.0781 -0.28125,-0.0781 -0.0859,0 -0.15625,0.0273 -0.21875,0.0781 -0.0625,0.0547 -0.10938,0.1211 -0.14063,0.20313 -0.043,0.13672 -0.0625,0.28125 -0.0625,0.4375 v 1.17187 z m 2.07031,-0.34375 0.0469,0.34375 c -0.10547,0.0195 -0.19922,0.0312 -0.28125,0.0312 -0.13672,0 -0.2461,-0.0234 -0.32813,-0.0625 -0.0742,-0.0391 -0.125,-0.0976 -0.15625,-0.17187 -0.0234,-0.0703 -0.0312,-0.22266 -0.0312,-0.45313 v -1.28125 h -0.28125 v -0.29687 h 0.28125 v -0.54688 l 0.375,-0.21875 v 0.76563 h 0.375 v 0.29687 h -0.375 v 1.3125 c 0,0.10547 0.004,0.17188 0.0156,0.20313 0.008,0.0312 0.0312,0.0586 0.0625,0.0781 0.0312,0.0117 0.0703,0.0156 0.125,0.0156 0.0391,0 0.0977,-0.004 0.17187,-0.0156 z m 0,0"
       style="fill:#000000;fill-opacity:1;fill-rule:nonzero;stroke:none"
       aria-label="Start" />
    <path
       id="path250"
       d="m 134.58204,292.71891 h -0.375 v -2.40625 c -0.0859,0.0859 -0.20313,0.17187 -0.35938,0.26562 -0.14843,0.0859 -0.27734,0.14844 -0.39062,0.1875 v -0.35937 c 0.20703,-0.10157 0.39062,-0.22266 0.54687,-0.35938 0.16407,-0.14453 0.28125,-0.28515 0.34375,-0.42187 h 0.23438 z m 0.82812,-0.8125 0.375,-0.0469 c 0.0391,0.21094 0.11329,0.35938 0.21875,0.45313 0.10157,0.0937 0.22657,0.14062 0.375,0.14062 0.17579,0 0.32813,-0.0547 0.45313,-0.17187 0.125,-0.125 0.1875,-0.28125 0.1875,-0.46875 0,-0.16407 -0.0586,-0.30469 -0.17188,-0.42188 -0.11718,-0.11328 -0.26171,-0.17187 -0.4375,-0.17187 -0.0742,0 -0.16406,0.0156 -0.26562,0.0469 l 0.0469,-0.32812 c 0.0195,0 0.0391,0 0.0625,0 0.15625,0 0.29688,-0.0391 0.42188,-0.125 0.13281,-0.082 0.20312,-0.21094 0.20312,-0.39063 0,-0.13281 -0.0469,-0.25 -0.14062,-0.34375 -0.0937,-0.0937 -0.21484,-0.14062 -0.35938,-0.14062 -0.14843,0 -0.27343,0.0469 -0.375,0.14062 -0.0937,0.0937 -0.15625,0.23438 -0.1875,0.42188 l -0.375,-0.0781 c 0.0391,-0.25 0.14454,-0.4414 0.3125,-0.57812 0.16407,-0.14453 0.36719,-0.21875 0.60938,-0.21875 0.16406,0 0.31641,0.0391 0.45312,0.10937 0.14454,0.0742 0.25391,0.17188 0.32813,0.29688 0.082,0.125 0.125,0.26172 0.125,0.40625 0,0.125 -0.0391,0.24609 -0.10938,0.35937 -0.0742,0.10547 -0.17968,0.1875 -0.3125,0.25 0.17579,0.043 0.3125,0.13281 0.40625,0.26563 0.10157,0.13672 0.15625,0.30468 0.15625,0.5 0,0.27343 -0.10156,0.5 -0.29687,0.6875 -0.1875,0.17968 -0.43359,0.26562 -0.73438,0.26562 -0.27343,0 -0.49609,-0.0781 -0.67187,-0.23437 -0.17969,-0.15625 -0.27734,-0.36328 -0.29688,-0.625 z m 0,0"
       style="fill:#000000;fill-opacity:1;fill-rule:nonzero;stroke:none"
       aria-label="13" />
    <path
       id="path251"
       d="m 134.58204,307.12125 h -0.375 V 304.715 c -0.0859,0.0859 -0.20313,0.17187 -0.35938,0.26562 -0.14843,0.0859 -0.27734,0.14844 -0.39062,0.1875 v -0.35937 c 0.20703,-0.10157 0.39062,-0.22266 0.54687,-0.35938 0.16407,-0.14453 0.28125,-0.28515 0.34375,-0.42187 h 0.23438 z m 2.03125,0 v -0.73438 h -1.34375 v -0.34375 l 1.40625,-2 h 0.3125 v 2 h 0.42187 v 0.34375 h -0.42187 v 0.73438 z m 0,-1.07813 v -1.39062 l -0.96875,1.39062 z m 0,0"
       style="fill:#000000;fill-opacity:1;fill-rule:nonzero;stroke:none"
       aria-label="14" />
    <path
       id="path252"
       d="m 131.38828,289.04 v 4.8"
       style="fill:none;stroke:#000000;stroke-width:0.64;stroke-linecap:round;stroke-linejoin:round;stroke-miterlimit:10;stroke-dasharray:none;stroke-opacity:1" />
    <path
       id="path253"
       d="m 131.38828,303.44001 v 4.79998"
       style="fill:none;stroke:#000000;stroke-width:0.64;stroke-linecap:round;stroke-linejoin:round;stroke-miterlimit:10;stroke-dasharray:none;stroke-opacity:1" />
    <path
       id="path254"
       d="m 126.5883,293.84 4.79998,9.60001"
       style="fill:none;stroke:#000000;stroke-width:0.64;stroke-linecap:round;stroke-linejoin:round;stroke-miterlimit:10;stroke-dasharray:none;stroke-opacity:1" />
    <path
       id="path255"
       d="m 121.78829,298.64 h 3.2"
       style="fill:none;stroke:#000000;stroke-width:0.64;stroke-linecap:round;stroke-linejoin:round;stroke-miterlimit:10;stroke-dasharray:none;stroke-opacity:1" />
    <path
       id="path256"
       d="m 126.5883,298.64 h 2.55999"
       style="fill:none;stroke:#000000;stroke-width:0.64;stroke-linecap:round;stroke-linejoin:round;stroke-miterlimit:10;stroke-dasharray:none;stroke-opacity:1" />
    <path
       id="path257"
       d="m 121.78829,296.4 v 4.47999"
       style="fill:none;stroke:#000000;stroke-width:0.64;stroke-linecap:round;stroke-linejoin:round;stroke-miterlimit:10;stroke-dasharray:none;stroke-opacity:1" />
    <path
       id="path258"
       d="m 121.78829,296.4 h 2.23999"
       style="fill:none;stroke:#000000;stroke-width:0.64;stroke-linecap:round;stroke-linejoin:round;stroke-miterlimit:10;stroke-dasharray:none;stroke-opacity:1" />
    <path
       id="path259"
       d="m 121.78829,300.87999 h 2.23999"
       style="fill:none;stroke:#000000;stroke-width:0.64;stroke-linecap:round;stroke-linejoin:round;stroke-miterlimit:10;stroke-dasharray:none;stroke-opacity:1" />
    <path
       id="path260"
       d="m 183.36329,298.84 v -0.375 h 1.15625 v 0.375 z m 1.46094,0.92187 v -3.07812 h 0.40625 v 1.53125 l 1.53125,-1.53125 h 0.54687 l -1.28125,1.25 1.34375,1.82812 h -0.53125 l -1.10937,-1.5625 -0.5,0.5 v 1.0625 z m 2.70703,0 v -3.07812 h 0.625 l 0.71875,2.1875 c 0.0703,0.19922 0.125,0.35156 0.15625,0.45312 0.0312,-0.11328 0.082,-0.28125 0.15625,-0.5 l 0.73437,-2.14062 h 0.54688 v 3.07812 h -0.39063 v -2.57812 l -0.89062,2.57812 h -0.375 l -0.875,-2.625 v 2.625 z m 0,0"
       style="fill:#000000;fill-opacity:1;fill-rule:nonzero;stroke:none"
       aria-label="  -KM" />
    <path
       id="path261"
       d="m 169.78126,292.71891 h -0.375 v -2.40625 c -0.0859,0.0859 -0.20312,0.17187 -0.35937,0.26562 -0.14844,0.0859 -0.27735,0.14844 -0.39063,0.1875 v -0.35937 c 0.20703,-0.10157 0.39063,-0.22266 0.54688,-0.35938 0.16406,-0.14453 0.28125,-0.28515 0.34375,-0.42187 h 0.23437 z m 2.23438,0 h -0.375 v -2.40625 c -0.0859,0.0859 -0.20313,0.17187 -0.35938,0.26562 -0.14844,0.0859 -0.27734,0.14844 -0.39062,0.1875 v -0.35937 c 0.20703,-0.10157 0.39062,-0.22266 0.54687,-0.35938 0.16406,-0.14453 0.28125,-0.28515 0.34375,-0.42187 h 0.23438 z m 0,0"
       style="fill:#000000;fill-opacity:1;fill-rule:nonzero;stroke:none"
       aria-label="11" />
    <path
       id="path262"
       d="m 155.38282,292.71891 h -0.375 v -2.40625 c -0.0859,0.0859 -0.20313,0.17187 -0.35938,0.26562 -0.14843,0.0859 -0.27734,0.14844 -0.39062,0.1875 v -0.35937 c 0.20703,-0.10157 0.39062,-0.22266 0.54687,-0.35938 0.16407,-0.14453 0.28125,-0.28515 0.34375,-0.42187 h 0.23438 z m 0.82812,-0.8125 0.375,-0.0469 c 0.0391,0.21094 0.11328,0.35938 0.21875,0.45313 0.10157,0.0937 0.22657,0.14062 0.375,0.14062 0.17578,0 0.32813,-0.0547 0.45313,-0.17187 0.125,-0.125 0.1875,-0.28125 0.1875,-0.46875 0,-0.16407 -0.0586,-0.30469 -0.17188,-0.42188 -0.11718,-0.11328 -0.26172,-0.17187 -0.4375,-0.17187 -0.0742,0 -0.16406,0.0156 -0.26562,0.0469 l 0.0469,-0.32812 c 0.0195,0 0.0391,0 0.0625,0 0.15625,0 0.29688,-0.0391 0.42188,-0.125 0.13281,-0.082 0.20312,-0.21094 0.20312,-0.39063 0,-0.13281 -0.0469,-0.25 -0.14062,-0.34375 -0.0937,-0.0937 -0.21485,-0.14062 -0.35938,-0.14062 -0.14843,0 -0.27343,0.0469 -0.375,0.14062 -0.0937,0.0937 -0.15625,0.23438 -0.1875,0.42188 l -0.375,-0.0781 c 0.0391,-0.25 0.14453,-0.4414 0.3125,-0.57812 0.16407,-0.14453 0.36719,-0.21875 0.60938,-0.21875 0.16406,0 0.3164,0.0391 0.45312,0.10937 0.14453,0.0742 0.25391,0.17188 0.32813,0.29688 0.082,0.125 0.125,0.26172 0.125,0.40625 0,0.125 -0.0391,0.24609 -0.10938,0.35937 -0.0742,0.10547 -0.17968,0.1875 -0.3125,0.25 0.17578,0.043 0.3125,0.13281 0.40625,0.26563 0.10157,0.13672 0.15625,0.30468 0.15625,0.5 0,0.27343 -0.10156,0.5 -0.29687,0.6875 -0.1875,0.17968 -0.4336,0.26562 -0.73438,0.26562 -0.27343,0 -0.49609,-0.0781 -0.67187,-0.23437 -0.17969,-0.15625 -0.27735,-0.36328 -0.29688,-0.625 z m 0,0"
       style="fill:#000000;fill-opacity:1;fill-rule:nonzero;stroke:none"
       aria-label="13" />
    <path
       id="path263"
       d="m 169.78126,307.12125 h -0.375 V 304.715 c -0.0859,0.0859 -0.20312,0.17187 -0.35937,0.26562 -0.14844,0.0859 -0.27735,0.14844 -0.39063,0.1875 v -0.35937 c 0.20703,-0.10157 0.39063,-0.22266 0.54688,-0.35938 0.16406,-0.14453 0.28125,-0.28515 0.34375,-0.42187 h 0.23437 z m 2.79688,-0.35938 v 0.35938 h -2.03125 c 0,-0.0937 0.0156,-0.17969 0.0469,-0.26563 0.0508,-0.13281 0.13281,-0.26953 0.25,-0.40625 0.11328,-0.13281 0.28125,-0.28906 0.5,-0.46875 0.33203,-0.26953 0.55469,-0.48437 0.67188,-0.64062 0.11328,-0.16407 0.17187,-0.32032 0.17187,-0.46875 0,-0.14453 -0.0547,-0.26953 -0.15625,-0.375 -0.10547,-0.10157 -0.24609,-0.15625 -0.42187,-0.15625 -0.17969,0 -0.32422,0.0586 -0.4375,0.17187 -0.10547,0.10547 -0.15625,0.25781 -0.15625,0.45313 l -0.39063,-0.0469 c 0.0195,-0.28906 0.11719,-0.50781 0.29688,-0.65625 0.17578,-0.15625 0.41015,-0.23437 0.70312,-0.23437 0.28906,0 0.51953,0.0859 0.6875,0.25 0.17578,0.16797 0.26563,0.37109 0.26563,0.60937 0,0.125 -0.0273,0.25 -0.0781,0.375 -0.043,0.11719 -0.125,0.24219 -0.25,0.375 -0.11719,0.125 -0.30859,0.30469 -0.57812,0.53125 -0.23047,0.1875 -0.375,0.32031 -0.4375,0.39063 -0.0625,0.0625 -0.11719,0.13281 -0.15625,0.20312 z m 0,0"
       style="fill:#000000;fill-opacity:1;fill-rule:nonzero;stroke:none"
       aria-label="12" />
    <path
       id="path264"
       d="m 155.38282,307.12125 h -0.375 V 304.715 c -0.0859,0.0859 -0.20313,0.17187 -0.35938,0.26562 -0.14843,0.0859 -0.27734,0.14844 -0.39062,0.1875 v -0.35937 c 0.20703,-0.10157 0.39062,-0.22266 0.54687,-0.35938 0.16407,-0.14453 0.28125,-0.28515 0.34375,-0.42187 h 0.23438 z m 2.03125,0 v -0.73438 h -1.34375 v -0.34375 l 1.40625,-2 h 0.3125 v 2 h 0.42187 v 0.34375 h -0.42187 v 0.73438 z m 0,-1.07813 v -1.39062 l -0.96875,1.39062 z m 0,0"
       style="fill:#000000;fill-opacity:1;fill-rule:nonzero;stroke:none"
       aria-label="14" />
    <path
       id="path265"
       d="m 174.5883,289.04 v 4.8"
       style="fill:none;stroke:#000000;stroke-width:0.64;stroke-linecap:round;stroke-linejoin:round;stroke-miterlimit:10;stroke-dasharray:none;stroke-opacity:1" />
    <path
       id="path266"
       d="m 174.5883,303.44001 v 4.79998"
       style="fill:none;stroke:#000000;stroke-width:0.64;stroke-linecap:round;stroke-linejoin:round;stroke-miterlimit:10;stroke-dasharray:none;stroke-opacity:1" />
    <path
       id="path267"
       d="m 169.78829,293.84 4.80001,9.60001"
       style="fill:none;stroke:#000000;stroke-width:0.64;stroke-linecap:round;stroke-linejoin:round;stroke-miterlimit:10;stroke-dasharray:none;stroke-opacity:1" />
    <path
       id="path268"
       d="m 174.5883,294.80001 h -5.76001"
       style="fill:none;stroke:#000000;stroke-width:0.64;stroke-linecap:round;stroke-linejoin:round;stroke-miterlimit:10;stroke-dasharray:none;stroke-opacity:1" />
    <path
       id="path269"
       d="m 174.5883,293.84 v 0.96001"
       style="fill:none;stroke:#000000;stroke-width:0.64;stroke-linecap:round;stroke-linejoin:round;stroke-miterlimit:10;stroke-dasharray:none;stroke-opacity:1" />
    <path
       id="path270"
       d="m 160.18829,289.04 v 4.8"
       style="fill:none;stroke:#000000;stroke-width:0.64;stroke-linecap:round;stroke-linejoin:round;stroke-miterlimit:10;stroke-dasharray:none;stroke-opacity:1" />
    <path
       id="path271"
       d="m 160.18829,303.44001 v 4.79998"
       style="fill:none;stroke:#000000;stroke-width:0.64;stroke-linecap:round;stroke-linejoin:round;stroke-miterlimit:10;stroke-dasharray:none;stroke-opacity:1" />
    <path
       id="path272"
       d="m 164.98829,293.84 -4.8,9.60001"
       style="fill:none;stroke:#000000;stroke-width:0.64;stroke-linecap:round;stroke-linejoin:round;stroke-miterlimit:10;stroke-dasharray:none;stroke-opacity:1" />
    <path
       id="path273"
       d="m 132.50829,159.52 c 0,-0.57 -0.46,-1.04 -1.04,-1.04 -0.58,0 -1.04,0.47 -1.04,1.04 0,0.57 0.46,1.04 1.04,1.04 0.58,0 1.04,-0.47 1.04,-1.04 z"
       style="fill:#ff0000;fill-opacity:1;fill-rule:evenodd;stroke:#800000;stroke-width:0.64;stroke-linecap:round;stroke-linejoin:round;stroke-miterlimit:10;stroke-dasharray:none;stroke-opacity:1" />
    <path
       id="path274"
       d="m 114.56251,356.43765 v -0.375 h 1.15625 v 0.375 z m 1.46094,0.92188 v -3.07813 h 0.40625 v 1.53125 l 1.53125,-1.53125 h 0.54687 l -1.28125,1.25 1.34375,1.82813 h -0.53125 l -1.10937,-1.5625 -0.5,0.5 v 1.0625 z m 2.70703,0 v -3.07813 h 0.625 l 0.71875,2.1875 c 0.0703,0.19922 0.125,0.35157 0.15625,0.45313 0.0312,-0.11328 0.082,-0.28125 0.15625,-0.5 l 0.73438,-2.14063 h 0.54687 v 3.07813 h -0.39062 v -2.57813 l -0.89063,2.57813 h -0.375 l -0.875,-2.625 v 2.625 z m 0,0"
       style="fill:#000000;fill-opacity:1;fill-rule:nonzero;stroke:none"
       aria-label="  -KM" />
    <path
       id="path275"
       d="m 132.98829,350.32046 1.17187,-3.07812 h 0.4375 l 1.26563,3.07812 h -0.46875 l -0.35938,-0.9375 h -1.28125 l -0.34375,0.9375 z m 0.875,-1.26562 h 1.04687 l -0.3125,-0.84375 c -0.10546,-0.25781 -0.17968,-0.47266 -0.21875,-0.64063 -0.043,0.19922 -0.10156,0.39063 -0.17187,0.57813 z m 3.42578,1.26562 h -0.375 v -2.40625 c -0.0859,0.0859 -0.20312,0.17188 -0.35937,0.26563 -0.14844,0.0859 -0.27735,0.14844 -0.39063,0.1875 v -0.35938 c 0.20703,-0.10156 0.39063,-0.22265 0.54688,-0.35937 0.16406,-0.14453 0.28125,-0.28516 0.34375,-0.42188 h 0.23437 z m 0,0"
       style="fill:#000000;fill-opacity:1;fill-rule:nonzero;stroke:none"
       aria-label="A1" />
    <path
       id="path276"
       d="m 132.98829,364.71891 1.17187,-3.07813 h 0.4375 l 1.26563,3.07813 h -0.46875 l -0.35938,-0.9375 h -1.28125 l -0.34375,0.9375 z m 0.875,-1.26563 h 1.04687 l -0.3125,-0.84375 c -0.10546,-0.25781 -0.17968,-0.47265 -0.21875,-0.64062 -0.043,0.19922 -0.10156,0.39062 -0.17187,0.57812 z m 3.98828,0.90625 v 0.35938 h -2.03125 c 0,-0.0937 0.0156,-0.17969 0.0469,-0.26563 0.0508,-0.13281 0.13281,-0.26953 0.25,-0.40625 0.11328,-0.13281 0.28125,-0.28906 0.5,-0.46875 0.33203,-0.26953 0.55468,-0.48437 0.67187,-0.64062 0.11328,-0.16407 0.17188,-0.32032 0.17188,-0.46875 0,-0.14453 -0.0547,-0.26953 -0.15625,-0.375 -0.10547,-0.10157 -0.2461,-0.15625 -0.42188,-0.15625 -0.17969,0 -0.32422,0.0586 -0.4375,0.17187 -0.10547,0.10547 -0.15625,0.25781 -0.15625,0.45313 l -0.39062,-0.0469 c 0.0195,-0.28906 0.11718,-0.50781 0.29687,-0.65625 0.17578,-0.15625 0.41016,-0.23437 0.70313,-0.23437 0.28906,0 0.51953,0.0859 0.6875,0.25 0.17578,0.16797 0.26562,0.37109 0.26562,0.60937 0,0.125 -0.0273,0.25 -0.0781,0.375 -0.043,0.11719 -0.125,0.24219 -0.25,0.375 -0.11719,0.125 -0.3086,0.30469 -0.57813,0.53125 -0.23047,0.1875 -0.375,0.32031 -0.4375,0.39063 -0.0625,0.0625 -0.11719,0.13281 -0.15625,0.20312 z m 0,0"
       style="fill:#000000;fill-opacity:1;fill-rule:nonzero;stroke:none"
       aria-label="A2" />
    <path
       id="path277"
       d="m 131.38828,346.63999 v 4.80002"
       style="fill:none;stroke:#000000;stroke-width:0.64;stroke-linecap:round;stroke-linejoin:round;stroke-miterlimit:10;stroke-dasharray:none;stroke-opacity:1" />
    <path
       id="path278"
       d="M 131.38828,361.04001 V 365.84"
       style="fill:none;stroke:#000000;stroke-width:0.64;stroke-linecap:round;stroke-linejoin:round;stroke-miterlimit:10;stroke-dasharray:none;stroke-opacity:1" />
    <path
       id="path279"
       d="m 131.38828,351.44001 v 1.6"
       style="fill:none;stroke:#000000;stroke-width:0.64;stroke-linecap:round;stroke-linejoin:round;stroke-miterlimit:10;stroke-dasharray:none;stroke-opacity:1" />
    <path
       id="path280"
       d="m 131.38828,359.44001 v 1.6"
       style="fill:none;stroke:#000000;stroke-width:0.64;stroke-linecap:round;stroke-linejoin:round;stroke-miterlimit:10;stroke-dasharray:none;stroke-opacity:1" />
    <path
       id="path281"
       d="m 124.98829,353.04001 h 12.8"
       style="fill:none;stroke:#000000;stroke-width:0.64;stroke-linecap:round;stroke-linejoin:round;stroke-miterlimit:10;stroke-dasharray:none;stroke-opacity:1" />
    <path
       id="path282"
       d="m 124.98829,359.44001 h 12.8"
       style="fill:none;stroke:#000000;stroke-width:0.64;stroke-linecap:round;stroke-linejoin:round;stroke-miterlimit:10;stroke-dasharray:none;stroke-opacity:1" />
    <path
       id="path283"
       d="m 124.98829,353.04001 v 6.4"
       style="fill:none;stroke:#000000;stroke-width:0.64;stroke-linecap:round;stroke-linejoin:round;stroke-miterlimit:10;stroke-dasharray:none;stroke-opacity:1" />
    <path
       id="path284"
       d="m 137.78829,353.04001 v 6.4"
       style="fill:none;stroke:#000000;stroke-width:0.64;stroke-linecap:round;stroke-linejoin:round;stroke-miterlimit:10;stroke-dasharray:none;stroke-opacity:1" />
    <path
       id="path289"
       d="m 132.50829,394.72001 c 0,-0.57 -0.46,-1.04 -1.04,-1.04 -0.58,0 -1.04,0.47 -1.04,1.04 0,0.57 0.46,1.04 1.04,1.04 0.58,0 1.04,-0.47 1.04,-1.04 z"
       style="fill:#ff0000;fill-opacity:1;fill-rule:evenodd;stroke:#800000;stroke-width:0.64;stroke-linecap:round;stroke-linejoin:round;stroke-miterlimit:10;stroke-dasharray:none;stroke-opacity:1" />
    <path
       id="path290"
       d="m 132.50829,284.32 c 0,-0.57 -0.46,-1.04 -1.04,-1.04 -0.58,0 -1.04,0.47 -1.04,1.04 0,0.57 0.46,1.04 1.04,1.04 0.58,0 1.04,-0.47 1.04,-1.04 z"
       style="fill:#ff0000;fill-opacity:1;fill-rule:evenodd;stroke:#800000;stroke-width:0.64;stroke-linecap:round;stroke-linejoin:round;stroke-miterlimit:10;stroke-dasharray:none;stroke-opacity:1" />
    <path
       id="path292"
       d="m 132.50829,236.32 c 0,-0.57 -0.46,-1.04 -1.04,-1.04 -0.58,0 -1.04,0.47 -1.04,1.04 0,0.57 0.46,1.04 1.04,1.04 0.58,0 1.04,-0.47 1.04,-1.04 z"
       style="fill:#ff0000;fill-opacity:1;fill-rule:evenodd;stroke:#800000;stroke-width:0.64;stroke-linecap:round;stroke-linejoin:round;stroke-miterlimit:10;stroke-dasharray:none;stroke-opacity:1" />
    <path
       id="path293"
       d="m 185.49219,337.17594 0.39063,-0.0312 c 0.0195,0.14843 0.0625,0.27343 0.125,0.375 0.0625,0.0937 0.16016,0.17187 0.29687,0.23437 0.14454,0.0625 0.30469,0.0937 0.48438,0.0937 0.15625,0 0.28906,-0.0195 0.40625,-0.0625 0.125,-0.0508 0.21094,-0.11328 0.26562,-0.1875 0.0625,-0.082 0.0937,-0.17187 0.0937,-0.26562 0,-0.10157 -0.0312,-0.19141 -0.0937,-0.26563 -0.0547,-0.0703 -0.14062,-0.1289 -0.26562,-0.17187 -0.0859,-0.0312 -0.26563,-0.0781 -0.54688,-0.14063 -0.28125,-0.0703 -0.48046,-0.14062 -0.59375,-0.20312 -0.14843,-0.082 -0.25781,-0.17578 -0.32812,-0.28125 -0.0742,-0.11328 -0.10938,-0.24219 -0.10938,-0.39063 0,-0.15625 0.0391,-0.30078 0.125,-0.4375 0.0937,-0.13281 0.22266,-0.23437 0.39063,-0.29687 0.16406,-0.0703 0.35156,-0.10938 0.5625,-0.10938 0.22656,0 0.42578,0.0391 0.59375,0.10938 0.17578,0.0742 0.3125,0.18359 0.40625,0.32812 0.0937,0.13672 0.14453,0.29688 0.15625,0.48438 l -0.39063,0.0156 c -0.0234,-0.1875 -0.0937,-0.32812 -0.21875,-0.42187 -0.11718,-0.10157 -0.29296,-0.15625 -0.53125,-0.15625 -0.24218,0 -0.41796,0.0469 -0.53125,0.14062 -0.11718,0.0859 -0.17187,0.1875 -0.17187,0.3125 0,0.11719 0.0391,0.21094 0.125,0.28125 0.0703,0.0742 0.27344,0.14844 0.60937,0.21875 0.33204,0.0742 0.55469,0.13672 0.67188,0.1875 0.1875,0.0859 0.32031,0.19531 0.40625,0.32813 0.082,0.125 0.125,0.26562 0.125,0.42187 0,0.16797 -0.0469,0.32422 -0.14063,0.46875 -0.0937,0.14844 -0.23046,0.26172 -0.40625,0.34375 -0.17968,0.0703 -0.375,0.10938 -0.59375,0.10938 -0.27343,0 -0.50781,-0.0391 -0.70312,-0.10938 -0.1875,-0.082 -0.33594,-0.20703 -0.4375,-0.375 -0.10547,-0.16406 -0.16406,-0.34765 -0.17188,-0.54687 z m 3.62891,0.98437 v -2.71875 h -1.01562 v -0.35937 h 2.4375 v 0.35937 h -1.01563 v 2.71875 z m 1.37109,-1.5 c 0,-0.50781 0.13282,-0.90625 0.40625,-1.1875 0.28125,-0.28906 0.64063,-0.4375 1.07813,-0.4375 0.28125,0 0.53516,0.0703 0.76562,0.20313 0.22657,0.13672 0.39844,0.32422 0.51563,0.5625 0.125,0.24218 0.1875,0.51562 0.1875,0.82812 0,0.3125 -0.0703,0.59375 -0.20313,0.84375 -0.125,0.24219 -0.30468,0.42188 -0.53125,0.54688 -0.23046,0.125 -0.48046,0.1875 -0.75,0.1875 -0.28125,0 -0.53906,-0.0664 -0.76562,-0.20313 -0.23047,-0.13281 -0.40625,-0.32031 -0.53125,-0.5625 -0.11719,-0.25 -0.17188,-0.50781 -0.17188,-0.78125 z m 0.42188,0.0156 c 0,0.36718 0.0977,0.65625 0.29687,0.875 0.19532,0.21093 0.44532,0.3125 0.75,0.3125 0.3125,0 0.56641,-0.10157 0.76563,-0.3125 0.19531,-0.21875 0.29687,-0.52344 0.29687,-0.92188 0,-0.25 -0.0469,-0.46875 -0.14062,-0.65625 -0.0859,-0.1875 -0.21094,-0.33203 -0.375,-0.4375 -0.15625,-0.10156 -0.33594,-0.15625 -0.53125,-0.15625 -0.29297,0 -0.54297,0.10156 -0.75,0.29688 -0.21094,0.19922 -0.3125,0.53125 -0.3125,1 z m 2.71094,1.48437 v -3.07812 h 1.15625 c 0.20703,0 0.36328,0.0117 0.46875,0.0312 0.15625,0.0234 0.28515,0.0703 0.39062,0.14062 0.10156,0.0742 0.17969,0.17188 0.23438,0.29688 0.0625,0.125 0.0937,0.26562 0.0937,0.42187 0,0.26172 -0.0859,0.48438 -0.25,0.67188 -0.15625,0.17968 -0.45313,0.26562 -0.89063,0.26562 h -0.79687 v 1.25 z m 0.40625,-1.60937 h 0.79687 c 0.25781,0 0.44531,-0.0469 0.5625,-0.14063 0.11328,-0.10156 0.17188,-0.24219 0.17188,-0.42187 0,-0.125 -0.0391,-0.23438 -0.10938,-0.32813 -0.0625,-0.0937 -0.14844,-0.15625 -0.25,-0.1875 -0.0742,-0.0195 -0.19922,-0.0312 -0.375,-0.0312 h -0.79687 z m 0,0"
       style="fill:#000000;fill-opacity:1;fill-rule:nonzero;stroke:none"
       aria-label=" STOP" />
    <path
       id="path294"
       d="m 168.04297,331.12125 1.1875,-1.60938 -1.04687,-1.46875 h 0.48437 l 0.5625,0.79688 c 0.11329,0.15625 0.19532,0.28125 0.25,0.375 0.0625,-0.11328 0.14063,-0.23438 0.23438,-0.35938 l 0.625,-0.8125 h 0.4375 l -1.07813,1.45313 1.17188,1.625 h -0.51563 l -0.76562,-1.09375 c -0.043,-0.0625 -0.0898,-0.12891 -0.14063,-0.20313 -0.0625,0.10547 -0.10937,0.17969 -0.14062,0.21875 l -0.78125,1.07813 z m 4.28516,0 h -0.375 V 328.715 c -0.0859,0.0859 -0.20312,0.17187 -0.35937,0.26562 -0.14844,0.0859 -0.27735,0.14844 -0.39063,0.1875 v -0.35937 c 0.20703,-0.10157 0.39063,-0.22266 0.54688,-0.35938 0.16406,-0.14453 0.28125,-0.28515 0.34375,-0.42187 h 0.23437 z m 0,0"
       style="fill:#000000;fill-opacity:1;fill-rule:nonzero;stroke:none"
       aria-label="X1" />
    <path
       id="path295"
       d="m 168.04297,345.51969 1.1875,-1.60937 -1.04687,-1.46875 h 0.48437 l 0.5625,0.79687 c 0.11329,0.15625 0.19532,0.28125 0.25,0.375 0.0625,-0.11328 0.14063,-0.23437 0.23438,-0.35937 l 0.625,-0.8125 h 0.4375 l -1.07813,1.45312 1.17188,1.625 h -0.51563 l -0.76562,-1.09375 c -0.043,-0.0625 -0.0898,-0.12891 -0.14063,-0.20312 -0.0625,0.10546 -0.10937,0.17968 -0.14062,0.21875 l -0.78125,1.07812 z m 4.84766,-0.35937 v 0.35937 h -2.03125 c 0,-0.0937 0.0156,-0.17969 0.0469,-0.26562 0.0508,-0.13282 0.13281,-0.26954 0.25,-0.40625 0.11328,-0.13282 0.28125,-0.28907 0.5,-0.46875 0.33203,-0.26954 0.55468,-0.48438 0.67187,-0.64063 0.11328,-0.16406 0.17188,-0.32031 0.17188,-0.46875 0,-0.14453 -0.0547,-0.26953 -0.15625,-0.375 -0.10547,-0.10156 -0.2461,-0.15625 -0.42188,-0.15625 -0.17969,0 -0.32422,0.0586 -0.4375,0.17188 -0.10547,0.10546 -0.15625,0.25781 -0.15625,0.45312 l -0.39062,-0.0469 c 0.0195,-0.28907 0.11718,-0.50782 0.29687,-0.65625 0.17578,-0.15625 0.41016,-0.23438 0.70313,-0.23438 0.28906,0 0.51953,0.0859 0.6875,0.25 0.17578,0.16797 0.26562,0.37109 0.26562,0.60938 0,0.125 -0.0273,0.25 -0.0781,0.375 -0.043,0.11718 -0.125,0.24218 -0.25,0.375 -0.11719,0.125 -0.3086,0.30468 -0.57813,0.53125 -0.23047,0.1875 -0.375,0.32031 -0.4375,0.39062 -0.0625,0.0625 -0.11719,0.13281 -0.15625,0.20313 z m 0,0"
       style="fill:#000000;fill-opacity:1;fill-rule:nonzero;stroke:none"
       aria-label="X2" />
    <path
       id="path296"
       d="m 174.5883,327.44001 v 4.79998"
       style="fill:none;stroke:#000000;stroke-width:0.64;stroke-linecap:round;stroke-linejoin:round;stroke-miterlimit:10;stroke-dasharray:none;stroke-opacity:1" />
    <path
       id="path297"
       d="m 174.5883,341.84 v 4.79999"
       style="fill:none;stroke:#000000;stroke-width:0.64;stroke-linecap:round;stroke-linejoin:round;stroke-miterlimit:10;stroke-dasharray:none;stroke-opacity:1" />
    <path
       id="path298"
       d="m 179.22829,336.96 c 0,-2.6 -2.11,-4.72 -4.72,-4.72 -2.61,0 -4.72,2.12 -4.72,4.72 0,2.6 2.11,4.72 4.72,4.72 2.61,0 4.72,-2.12 4.72,-4.72 z"
       style="fill:none;stroke:#000000;stroke-width:0.64;stroke-linecap:round;stroke-linejoin:round;stroke-miterlimit:10;stroke-dasharray:none;stroke-opacity:1" />
    <path
       id="path299"
       d="M 178.10828,333.51999 171.06829,340.56"
       style="fill:none;stroke:#000000;stroke-width:0.64;stroke-linecap:round;stroke-linejoin:round;stroke-miterlimit:10;stroke-dasharray:none;stroke-opacity:1" />
    <path
       id="path300"
       d="m 178.10828,340.56 -7.03999,-7.04001"
       style="fill:none;stroke:#000000;stroke-width:0.64;stroke-linecap:round;stroke-linejoin:round;stroke-miterlimit:10;stroke-dasharray:none;stroke-opacity:1" />
    <path
       id="path301"
       d="m 137.97657,337.17594 0.39062,-0.0312 c 0.0195,0.14843 0.0625,0.27343 0.125,0.375 0.0625,0.0937 0.16016,0.17187 0.29688,0.23437 0.14453,0.0625 0.30469,0.0937 0.48437,0.0937 0.15625,0 0.28907,-0.0195 0.40625,-0.0625 0.125,-0.0508 0.21094,-0.11328 0.26563,-0.1875 0.0625,-0.082 0.0937,-0.17187 0.0937,-0.26562 0,-0.10157 -0.0312,-0.19141 -0.0937,-0.26563 -0.0547,-0.0703 -0.14063,-0.1289 -0.26563,-0.17187 -0.0859,-0.0312 -0.26562,-0.0781 -0.54687,-0.14063 -0.28125,-0.0703 -0.48047,-0.14062 -0.59375,-0.20312 -0.14844,-0.082 -0.25781,-0.17578 -0.32813,-0.28125 -0.0742,-0.11328 -0.10937,-0.24219 -0.10937,-0.39063 0,-0.15625 0.0391,-0.30078 0.125,-0.4375 0.0937,-0.13281 0.22265,-0.23437 0.39062,-0.29687 0.16407,-0.0703 0.35157,-0.10938 0.5625,-0.10938 0.22657,0 0.42578,0.0391 0.59375,0.10938 0.17578,0.0742 0.3125,0.18359 0.40625,0.32812 0.0937,0.13672 0.14453,0.29688 0.15625,0.48438 l -0.39062,0.0156 c -0.0234,-0.1875 -0.0937,-0.32812 -0.21875,-0.42187 -0.11719,-0.10157 -0.29297,-0.15625 -0.53125,-0.15625 -0.24219,0 -0.41797,0.0469 -0.53125,0.14062 -0.11719,0.0859 -0.17188,0.1875 -0.17188,0.3125 0,0.11719 0.0391,0.21094 0.125,0.28125 0.0703,0.0742 0.27344,0.14844 0.60938,0.21875 0.33203,0.0742 0.55469,0.13672 0.67187,0.1875 0.1875,0.0859 0.32032,0.19531 0.40625,0.32813 0.082,0.125 0.125,0.26562 0.125,0.42187 0,0.16797 -0.0469,0.32422 -0.14062,0.46875 -0.0937,0.14844 -0.23047,0.26172 -0.40625,0.34375 -0.17969,0.0703 -0.375,0.10938 -0.59375,0.10938 -0.27344,0 -0.50781,-0.0391 -0.70313,-0.10938 -0.1875,-0.082 -0.33593,-0.20703 -0.4375,-0.375 -0.10547,-0.16406 -0.16406,-0.34765 -0.17187,-0.54687 z m 3.6289,0.98437 v -2.71875 h -1.01562 v -0.35937 h 2.4375 v 0.35937 h -1.01563 v 2.71875 z m 1.125,0 1.17188,-3.07812 h 0.4375 l 1.26562,3.07812 h -0.46875 l -0.35937,-0.9375 h -1.28125 l -0.34375,0.9375 z m 0.875,-1.26562 h 1.04688 l -0.3125,-0.84375 c -0.10547,-0.25782 -0.17969,-0.47266 -0.21875,-0.64063 -0.043,0.19922 -0.10156,0.39063 -0.17188,0.57813 z m 2.21875,1.26562 v -3.07812 h 1.35938 c 0.26953,0 0.47656,0.0312 0.625,0.0937 0.14453,0.0547 0.25781,0.15234 0.34375,0.29687 0.082,0.13672 0.125,0.28906 0.125,0.45313 0,0.21875 -0.0742,0.40625 -0.21875,0.5625 -0.13672,0.14843 -0.35156,0.23437 -0.64063,0.26562 0.10157,0.0547 0.17969,0.10547 0.23438,0.15625 0.125,0.11719 0.23828,0.25 0.34375,0.40625 l 0.53125,0.84375 h -0.51563 l -0.40625,-0.64062 c -0.11718,-0.1875 -0.21484,-0.32813 -0.29687,-0.42188 -0.0742,-0.0937 -0.14063,-0.16015 -0.20313,-0.20312 -0.0625,-0.0391 -0.125,-0.0664 -0.1875,-0.0781 -0.043,-0.008 -0.11718,-0.0156 -0.21875,-0.0156 h -0.46875 v 1.35937 z m 0.40625,-1.71875 h 0.875 c 0.1875,0 0.33204,-0.0156 0.4375,-0.0469 0.10157,-0.0391 0.17969,-0.10157 0.23438,-0.1875 0.0508,-0.0937 0.0781,-0.1875 0.0781,-0.28125 0,-0.14453 -0.0547,-0.26563 -0.15625,-0.35938 -0.10547,-0.0937 -0.27344,-0.14062 -0.5,-0.14062 h -0.96875 z m 3.23438,1.71875 v -2.71875 h -1.01563 v -0.35937 h 2.4375 v 0.35937 h -1.01562 v 2.71875 z m 0,0"
       style="fill:#000000;fill-opacity:1;fill-rule:nonzero;stroke:none"
       aria-label="START" />
    <path
       id="path302"
       d="m 161.80469,331.12125 1.1875,-1.60938 -1.04687,-1.46875 h 0.48437 l 0.5625,0.79688 c 0.11328,0.15625 0.19532,0.28125 0.25,0.375 0.0625,-0.11328 0.14063,-0.23438 0.23438,-0.35938 l 0.625,-0.8125 h 0.4375 l -1.07813,1.45313 1.17188,1.625 h -0.51563 l -0.76562,-1.09375 c -0.043,-0.0625 -0.0899,-0.12891 -0.14063,-0.20313 -0.0625,0.10547 -0.10937,0.17969 -0.14062,0.21875 l -0.78125,1.07813 z m 4.28516,0 h -0.375 V 328.715 c -0.0859,0.0859 -0.20313,0.17187 -0.35938,0.26562 -0.14843,0.0859 -0.27734,0.14844 -0.39062,0.1875 v -0.35937 c 0.20703,-0.10157 0.39062,-0.22266 0.54687,-0.35938 0.16407,-0.14453 0.28125,-0.28515 0.34375,-0.42187 h 0.23438 z m 0,0"
       style="fill:#000000;fill-opacity:1;fill-rule:nonzero;stroke:none"
       aria-label="X1" />
    <path
       id="path303"
       d="m 161.80469,345.51969 1.1875,-1.60937 -1.04687,-1.46875 h 0.48437 l 0.5625,0.79687 c 0.11328,0.15625 0.19532,0.28125 0.25,0.375 0.0625,-0.11328 0.14063,-0.23437 0.23438,-0.35937 l 0.625,-0.8125 h 0.4375 l -1.07813,1.45312 1.17188,1.625 h -0.51563 l -0.76562,-1.09375 c -0.043,-0.0625 -0.0899,-0.12891 -0.14063,-0.20312 -0.0625,0.10546 -0.10937,0.17968 -0.14062,0.21875 l -0.78125,1.07812 z m 4.84766,-0.35937 v 0.35937 h -2.03125 c 0,-0.0937 0.0156,-0.17969 0.0469,-0.26562 0.0508,-0.13282 0.13282,-0.26954 0.25,-0.40625 0.11329,-0.13282 0.28125,-0.28907 0.5,-0.46875 0.33204,-0.26954 0.55469,-0.48438 0.67188,-0.64063 0.11328,-0.16406 0.17187,-0.32031 0.17187,-0.46875 0,-0.14453 -0.0547,-0.26953 -0.15625,-0.375 -0.10546,-0.10156 -0.24609,-0.15625 -0.42187,-0.15625 -0.17969,0 -0.32422,0.0586 -0.4375,0.17188 -0.10547,0.10546 -0.15625,0.25781 -0.15625,0.45312 l -0.39063,-0.0469 c 0.0195,-0.28907 0.11719,-0.50782 0.29688,-0.65625 0.17578,-0.15625 0.41016,-0.23438 0.70312,-0.23438 0.28907,0 0.51954,0.0859 0.6875,0.25 0.17579,0.16797 0.26563,0.37109 0.26563,0.60938 0,0.125 -0.0273,0.25 -0.0781,0.375 -0.043,0.11718 -0.125,0.24218 -0.25,0.375 -0.11718,0.125 -0.30859,0.30468 -0.57812,0.53125 -0.23047,0.1875 -0.375,0.32031 -0.4375,0.39062 -0.0625,0.0625 -0.11719,0.13281 -0.15625,0.20313 z m 0,0"
       style="fill:#000000;fill-opacity:1;fill-rule:nonzero;stroke:none"
       aria-label="X2" />
    <path
       id="path304"
       d="m 160.18829,327.44001 v 4.79998"
       style="fill:none;stroke:#000000;stroke-width:0.64;stroke-linecap:round;stroke-linejoin:round;stroke-miterlimit:10;stroke-dasharray:none;stroke-opacity:1" />
    <path
       id="path305"
       d="m 160.18829,341.84 v 4.79999"
       style="fill:none;stroke:#000000;stroke-width:0.64;stroke-linecap:round;stroke-linejoin:round;stroke-miterlimit:10;stroke-dasharray:none;stroke-opacity:1" />
    <path
       id="path306"
       d="m 164.82829,336.96 c 0,-2.6 -2.11,-4.72 -4.72,-4.72 -2.61,0 -4.72,2.12 -4.72,4.72 0,2.6 2.11,4.72 4.72,4.72 2.61,0 4.72,-2.12 4.72,-4.72 z"
       style="fill:none;stroke:#000000;stroke-width:0.64;stroke-linecap:round;stroke-linejoin:round;stroke-miterlimit:10;stroke-dasharray:none;stroke-opacity:1" />
    <path
       id="path307"
       d="m 156.66828,333.51999 7.04001,7.04001"
       style="fill:none;stroke:#000000;stroke-width:0.64;stroke-linecap:round;stroke-linejoin:round;stroke-miterlimit:10;stroke-dasharray:none;stroke-opacity:1" />
    <path
       id="path308"
       d="m 156.66828,340.56 7.04001,-7.04001"
       style="fill:none;stroke:#000000;stroke-width:0.64;stroke-linecap:round;stroke-linejoin:round;stroke-miterlimit:10;stroke-dasharray:none;stroke-opacity:1" />
    <path
       id="path309"
       d="m 175.70829,394.72001 c 0,-0.57 -0.46,-1.04 -1.04,-1.04 -0.58,0 -1.04,0.47 -1.04,1.04 0,0.57 0.46,1.04 1.04,1.04 0.58,0 1.04,-0.47 1.04,-1.04 z"
       style="fill:#ff0000;fill-opacity:1;fill-rule:evenodd;stroke:#800000;stroke-width:0.64;stroke-linecap:round;stroke-linejoin:round;stroke-miterlimit:10;stroke-dasharray:none;stroke-opacity:1" />
    <path
       id="path310"
       d="m 161.3083,394.72001 c 0,-0.57 -0.46,-1.04 -1.04,-1.04 -0.58,0 -1.04,0.47 -1.04,1.04 0,0.57 0.46,1.04 1.04,1.04 0.58,0 1.04,-0.47 1.04,-1.04 z"
       style="fill:#ff0000;fill-opacity:1;fill-rule:evenodd;stroke:#800000;stroke-width:0.64;stroke-linecap:round;stroke-linejoin:round;stroke-miterlimit:10;stroke-dasharray:none;stroke-opacity:1" />
    <path
       id="path311"
       d="m 132.50829,159.52 c 0,-0.57 -0.46,-1.04 -1.04,-1.04 -0.58,0 -1.04,0.47 -1.04,1.04 0,0.57 0.46,1.04 1.04,1.04 0.58,0 1.04,-0.47 1.04,-1.04 z"
       style="fill:#ff0000;fill-opacity:1;fill-rule:evenodd;stroke:#800000;stroke-width:0.64;stroke-linecap:round;stroke-linejoin:round;stroke-miterlimit:10;stroke-dasharray:none;stroke-opacity:1" />
    <path
       id="path312"
       d="m 132.50829,159.52 c 0,-0.57 -0.46,-1.04 -1.04,-1.04 -0.58,0 -1.04,0.47 -1.04,1.04 0,0.57 0.46,1.04 1.04,1.04 0.58,0 1.04,-0.47 1.04,-1.04 z"
       style="fill:#ff0000;fill-opacity:1;fill-rule:evenodd;stroke:#800000;stroke-width:0.64;stroke-linecap:round;stroke-linejoin:round;stroke-miterlimit:10;stroke-dasharray:none;stroke-opacity:1" />
    <path
       id="path313"
       d="m 132.50829,394.72001 c 0,-0.57 -0.46,-1.04 -1.04,-1.04 -0.58,0 -1.04,0.47 -1.04,1.04 0,0.57 0.46,1.04 1.04,1.04 0.58,0 1.04,-0.47 1.04,-1.04 z"
       style="fill:#ff0000;fill-opacity:1;fill-rule:evenodd;stroke:#800000;stroke-width:0.64;stroke-linecap:round;stroke-linejoin:round;stroke-miterlimit:10;stroke-dasharray:none;stroke-opacity:1" />
    <path
       id="path349"
       d="m 110.45313,255.57437 0.39062,-0.0312 c 0.0195,0.14844 0.0625,0.27344 0.125,0.375 0.0625,0.0937 0.16016,0.17187 0.29688,0.23437 0.14453,0.0625 0.30469,0.0937 0.48437,0.0937 0.15625,0 0.28907,-0.0195 0.40625,-0.0625 0.125,-0.0508 0.21094,-0.11328 0.26563,-0.18749 0.0625,-0.082 0.0937,-0.17188 0.0937,-0.26563 0,-0.10156 -0.0312,-0.19141 -0.0937,-0.26562 -0.0547,-0.0703 -0.14063,-0.12891 -0.26563,-0.17188 -0.0859,-0.0312 -0.26562,-0.0781 -0.54687,-0.14062 -0.28125,-0.0703 -0.48047,-0.14063 -0.59375,-0.20313 -0.14844,-0.082 -0.25781,-0.17578 -0.32813,-0.28125 -0.0742,-0.11328 -0.10937,-0.24219 -0.10937,-0.39062 0,-0.15625 0.0391,-0.30079 0.125,-0.4375 0.0937,-0.13282 0.22266,-0.23438 0.39062,-0.29688 0.16407,-0.0703 0.35157,-0.10937 0.5625,-0.10937 0.22657,0 0.42579,0.0391 0.59375,0.10937 0.17579,0.0742 0.3125,0.18359 0.40625,0.32813 0.0937,0.13671 0.14454,0.29687 0.15625,0.48437 l -0.39062,0.0156 c -0.0234,-0.1875 -0.0937,-0.32813 -0.21875,-0.42188 -0.11719,-0.10156 -0.29297,-0.15625 -0.53125,-0.15625 -0.24219,0 -0.41797,0.0469 -0.53125,0.14063 -0.11719,0.0859 -0.17188,0.1875 -0.17188,0.3125 0,0.11718 0.0391,0.21093 0.125,0.28125 0.0703,0.0742 0.27344,0.14843 0.60938,0.21875 0.33203,0.0742 0.55469,0.13671 0.67187,0.1875 0.1875,0.0859 0.32032,0.19531 0.40625,0.32812 0.082,0.125 0.125,0.26563 0.125,0.42188 0,0.16796 -0.0469,0.32421 -0.14062,0.46874 -0.0937,0.14844 -0.23047,0.26172 -0.40625,0.34375 -0.17969,0.0703 -0.375,0.10938 -0.59375,0.10938 -0.27344,0 -0.50781,-0.0391 -0.70313,-0.10938 -0.1875,-0.082 -0.33593,-0.20703 -0.4375,-0.375 -0.10546,-0.16406 -0.16406,-0.34765 -0.17187,-0.54687 z m 3.62891,0.64062 0.0469,0.34375 c -0.10547,0.0195 -0.19922,0.0312 -0.28125,0.0312 -0.13672,0 -0.24609,-0.0234 -0.32812,-0.0625 -0.0742,-0.0391 -0.125,-0.0976 -0.15625,-0.17187 -0.0234,-0.0703 -0.0312,-0.22266 -0.0312,-0.45312 v -1.28125 h -0.28125 v -0.29688 h 0.28125 v -0.54687 l 0.375,-0.21875 v 0.76562 h 0.375 v 0.29688 h -0.375 v 1.3125 c 0,0.10546 0.004,0.17187 0.0156,0.20312 0.008,0.0312 0.0312,0.0586 0.0625,0.0781 0.0312,0.0117 0.0703,0.0156 0.125,0.0156 0.0391,0 0.0977,-0.004 0.17188,-0.0156 z m 0.14843,-0.76562 c 0,-0.41406 0.11328,-0.72266 0.34375,-0.92187 0.19532,-0.16407 0.42969,-0.25 0.70313,-0.25 0.30078,0 0.55078,0.10546 0.75,0.3125 0.19531,0.19921 0.29687,0.47656 0.29687,0.82812 0,0.28125 -0.0469,0.50781 -0.14062,0.67187 -0.0859,0.16797 -0.21094,0.29688 -0.375,0.39063 -0.15625,0.082 -0.33594,0.125 -0.53125,0.125 -0.3125,0 -0.57031,-0.0977 -0.76563,-0.29688 -0.1875,-0.19531 -0.28125,-0.48437 -0.28125,-0.85937 z m 0.39063,0 c 0,0.28125 0.0625,0.49609 0.1875,0.64062 0.125,0.13672 0.28125,0.20313 0.46875,0.20313 0.1875,0 0.34375,-0.0664 0.46875,-0.20313 0.125,-0.14453 0.1875,-0.36328 0.1875,-0.65624 0,-0.28125 -0.0625,-0.48829 -0.1875,-0.625 -0.125,-0.14454 -0.28125,-0.21875 -0.46875,-0.21875 -0.1875,0 -0.34375,0.0742 -0.46875,0.21875 -0.125,0.13671 -0.1875,0.35156 -0.1875,0.64062 z m 2.02734,1.96875 v -3.09375 h 0.34375 v 0.29688 c 0.082,-0.11329 0.17578,-0.19532 0.28125,-0.25 0.10156,-0.0625 0.22656,-0.0937 0.375,-0.0937 0.1875,0 0.35156,0.0547 0.5,0.15625 0.14453,0.0937 0.25391,0.23046 0.32813,0.40625 0.0703,0.17968 0.10937,0.375 0.10937,0.59375 0,0.23046 -0.043,0.4375 -0.125,0.62499 -0.0859,0.17969 -0.20312,0.3125 -0.35937,0.40625 -0.15625,0.0937 -0.32032,0.14063 -0.48438,0.14063 -0.125,0 -0.24219,-0.0273 -0.34375,-0.0781 -0.10547,-0.0508 -0.1875,-0.11718 -0.25,-0.20312 v 1.09375 z m 0.34375,-1.95312 c 0,0.28125 0.0547,0.49218 0.17188,0.62499 0.11328,0.13672 0.2539,0.20313 0.42187,0.20313 0.16406,0 0.30469,-0.0664 0.42188,-0.20313 0.125,-0.14453 0.1875,-0.36718 0.1875,-0.67187 0,-0.28125 -0.0586,-0.48828 -0.17188,-0.625 -0.11719,-0.14453 -0.25781,-0.21875 -0.42187,-0.21875 -0.15625,0 -0.29688,0.0781 -0.42188,0.23438 -0.125,0.14843 -0.1875,0.36718 -0.1875,0.65625 z m 0,0"
       style="fill:#000000;fill-opacity:1;fill-rule:nonzero;stroke:none"
       aria-label=" Stop" />
    <path
       id="path350"
       d="m 134.58204,249.51969 h -0.375 v -2.40625 c -0.0859,0.0859 -0.20313,0.17188 -0.35938,0.26563 -0.14843,0.0859 -0.27734,0.14843 -0.39062,0.1875 v -0.35938 c 0.20703,-0.10156 0.39062,-0.22266 0.54687,-0.35937 0.16407,-0.14454 0.28125,-0.28516 0.34375,-0.42188 h 0.23438 z m 2.23437,0 h -0.375 v -2.40625 c -0.0859,0.0859 -0.20312,0.17188 -0.35937,0.26563 -0.14844,0.0859 -0.27734,0.14843 -0.39063,0.1875 v -0.35938 c 0.20704,-0.10156 0.39063,-0.22266 0.54688,-0.35937 0.16406,-0.14454 0.28125,-0.28516 0.34375,-0.42188 h 0.23437 z m 0,0"
       style="fill:#000000;fill-opacity:1;fill-rule:nonzero;stroke:none"
       aria-label="11" />
    <path
       id="path351"
       d="m 134.58204,263.91813 h -0.375 v -2.40625 c -0.0859,0.0859 -0.20313,0.17187 -0.35938,0.26562 -0.14843,0.0859 -0.27734,0.14844 -0.39062,0.1875 v -0.35937 c 0.20703,-0.10156 0.39062,-0.22266 0.54687,-0.35938 0.16407,-0.14453 0.28125,-0.28515 0.34375,-0.42187 h 0.23438 z m 2.79687,-0.35938 v 0.35938 h -2.03125 c 0,-0.0937 0.0156,-0.17969 0.0469,-0.26563 0.0508,-0.13281 0.13281,-0.26953 0.25,-0.40625 0.11328,-0.13281 0.28125,-0.28906 0.5,-0.46875 0.33203,-0.26953 0.55469,-0.48437 0.67187,-0.64062 0.11329,-0.16406 0.17188,-0.32031 0.17188,-0.46875 0,-0.14453 -0.0547,-0.26953 -0.15625,-0.375 -0.10547,-0.10156 -0.24609,-0.15625 -0.42188,-0.15625 -0.17968,0 -0.32421,0.0586 -0.4375,0.17187 -0.10546,0.10547 -0.15625,0.25782 -0.15625,0.45313 l -0.39062,-0.0469 c 0.0195,-0.28906 0.11719,-0.50781 0.29687,-0.65625 0.17579,-0.15625 0.41016,-0.23437 0.70313,-0.23437 0.28906,0 0.51953,0.0859 0.6875,0.25 0.17578,0.16797 0.26562,0.37109 0.26562,0.60937 0,0.125 -0.0273,0.25 -0.0781,0.375 -0.043,0.11719 -0.125,0.24219 -0.25,0.375 -0.11719,0.125 -0.30859,0.30469 -0.57813,0.53125 -0.23046,0.1875 -0.375,0.32032 -0.4375,0.39063 -0.0625,0.0625 -0.11718,0.13281 -0.15625,0.20312 z m 0,0"
       style="fill:#000000;fill-opacity:1;fill-rule:nonzero;stroke:none"
       aria-label="12" />
    <path
       id="path352"
       d="m 131.38828,245.84 v 4.8"
       style="fill:none;stroke:#000000;stroke-width:0.64;stroke-linecap:round;stroke-linejoin:round;stroke-miterlimit:10;stroke-dasharray:none;stroke-opacity:1" />
    <path
       id="path353"
       d="M 131.38828,260.23999 V 265.04"
       style="fill:none;stroke:#000000;stroke-width:0.64;stroke-linecap:round;stroke-linejoin:round;stroke-miterlimit:10;stroke-dasharray:none;stroke-opacity:1" />
    <path
       id="path354"
       d="m 136.18829,250.64 -4.80001,9.59999"
       style="fill:none;stroke:#000000;stroke-width:0.64;stroke-linecap:round;stroke-linejoin:round;stroke-miterlimit:10;stroke-dasharray:none;stroke-opacity:1" />
    <path
       id="path355"
       d="m 131.38828,251.59999 h 5.76001"
       style="fill:none;stroke:#000000;stroke-width:0.64;stroke-linecap:round;stroke-linejoin:round;stroke-miterlimit:10;stroke-dasharray:none;stroke-opacity:1" />
    <path
       id="path356"
       d="m 131.38828,250.64 v 0.95999"
       style="fill:none;stroke:#000000;stroke-width:0.64;stroke-linecap:round;stroke-linejoin:round;stroke-miterlimit:10;stroke-dasharray:none;stroke-opacity:1" />
    <path
       id="path357"
       d="m 121.78829,255.44001 h 3.2"
       style="fill:none;stroke:#000000;stroke-width:0.64;stroke-linecap:round;stroke-linejoin:round;stroke-miterlimit:10;stroke-dasharray:none;stroke-opacity:1" />
    <path
       id="path358"
       d="m 126.5883,255.44001 h 3.19999"
       style="fill:none;stroke:#000000;stroke-width:0.64;stroke-linecap:round;stroke-linejoin:round;stroke-miterlimit:10;stroke-dasharray:none;stroke-opacity:1" />
    <path
       id="path359"
       d="m 131.38828,255.44001 h 2.56002"
       style="fill:none;stroke:#000000;stroke-width:0.64;stroke-linecap:round;stroke-linejoin:round;stroke-miterlimit:10;stroke-dasharray:none;stroke-opacity:1" />
    <path
       id="path360"
       d="m 121.78829,253.2 v 4.48"
       style="fill:none;stroke:#000000;stroke-width:0.64;stroke-linecap:round;stroke-linejoin:round;stroke-miterlimit:10;stroke-dasharray:none;stroke-opacity:1" />
    <path
       id="path361"
       d="m 121.78829,253.2 h 2.23999"
       style="fill:none;stroke:#000000;stroke-width:0.64;stroke-linecap:round;stroke-linejoin:round;stroke-miterlimit:10;stroke-dasharray:none;stroke-opacity:1" />
    <path
       id="path362"
       d="m 121.78829,257.68 h 2.23999"
       style="fill:none;stroke:#000000;stroke-width:0.64;stroke-linecap:round;stroke-linejoin:round;stroke-miterlimit:10;stroke-dasharray:none;stroke-opacity:1" />
    <path
       id="path401"
       d="m 132.50829,159.52 c 0,-0.57 -0.46,-1.04 -1.04,-1.04 -0.58,0 -1.04,0.47 -1.04,1.04 0,0.57 0.46,1.04 1.04,1.04 0.58,0 1.04,-0.47 1.04,-1.04 z"
       style="fill:#ff0000;fill-opacity:1;fill-rule:evenodd;stroke:#800000;stroke-width:0.96;stroke-linecap:round;stroke-linejoin:round;stroke-miterlimit:10;stroke-dasharray:none;stroke-opacity:1" />
    <path
       id="path402"
       d="m 132.50829,394.72001 c 0,-0.57 -0.46,-1.04 -1.04,-1.04 -0.58,0 -1.04,0.47 -1.04,1.04 0,0.57 0.46,1.04 1.04,1.04 0.58,0 1.04,-0.47 1.04,-1.04 z"
       style="fill:#ff0000;fill-opacity:1;fill-rule:evenodd;stroke:#800000;stroke-width:0.96;stroke-linecap:round;stroke-linejoin:round;stroke-miterlimit:10;stroke-dasharray:none;stroke-opacity:1" />
    <path
       id="path403"
       d="m 132.50829,284.32 c 0,-0.57 -0.46,-1.04 -1.04,-1.04 -0.58,0 -1.04,0.47 -1.04,1.04 0,0.57 0.46,1.04 1.04,1.04 0.58,0 1.04,-0.47 1.04,-1.04 z"
       style="fill:#ff0000;fill-opacity:1;fill-rule:evenodd;stroke:#800000;stroke-width:0.96;stroke-linecap:round;stroke-linejoin:round;stroke-miterlimit:10;stroke-dasharray:none;stroke-opacity:1" />
    <path
       id="path405"
       d="m 132.50829,236.32 c 0,-0.57 -0.46,-1.04 -1.04,-1.04 -0.58,0 -1.04,0.47 -1.04,1.04 0,0.57 0.46,1.04 1.04,1.04 0.58,0 1.04,-0.47 1.04,-1.04 z"
       style="fill:#ff0000;fill-opacity:1;fill-rule:evenodd;stroke:#800000;stroke-width:0.96;stroke-linecap:round;stroke-linejoin:round;stroke-miterlimit:10;stroke-dasharray:none;stroke-opacity:1" />
    <path
       id="path406"
       d="m 175.70829,394.72001 c 0,-0.57 -0.46,-1.04 -1.04,-1.04 -0.58,0 -1.04,0.47 -1.04,1.04 0,0.57 0.46,1.04 1.04,1.04 0.58,0 1.04,-0.47 1.04,-1.04 z"
       style="fill:#ff0000;fill-opacity:1;fill-rule:evenodd;stroke:#800000;stroke-width:0.96;stroke-linecap:round;stroke-linejoin:round;stroke-miterlimit:10;stroke-dasharray:none;stroke-opacity:1" />
    <path
       id="path407"
       d="m 161.3083,394.72001 c 0,-0.57 -0.46,-1.04 -1.04,-1.04 -0.58,0 -1.04,0.47 -1.04,1.04 0,0.57 0.46,1.04 1.04,1.04 0.58,0 1.04,-0.47 1.04,-1.04 z"
       style="fill:#ff0000;fill-opacity:1;fill-rule:evenodd;stroke:#800000;stroke-width:0.96;stroke-linecap:round;stroke-linejoin:round;stroke-miterlimit:10;stroke-dasharray:none;stroke-opacity:1" />
    <path
       id="path408"
       d="m 132.50829,159.52 c 0,-0.57 -0.46,-1.04 -1.04,-1.04 -0.58,0 -1.04,0.47 -1.04,1.04 0,0.57 0.46,1.04 1.04,1.04 0.58,0 1.04,-0.47 1.04,-1.04 z"
       style="fill:#ff0000;fill-opacity:1;fill-rule:evenodd;stroke:#800000;stroke-width:0.96;stroke-linecap:round;stroke-linejoin:round;stroke-miterlimit:10;stroke-dasharray:none;stroke-opacity:1" />
    <path
       id="path409"
       d="m 132.50829,159.52 c 0,-0.57 -0.46,-1.04 -1.04,-1.04 -0.58,0 -1.04,0.47 -1.04,1.04 0,0.57 0.46,1.04 1.04,1.04 0.58,0 1.04,-0.47 1.04,-1.04 z"
       style="fill:#ff0000;fill-opacity:1;fill-rule:evenodd;stroke:#800000;stroke-width:0.96;stroke-linecap:round;stroke-linejoin:round;stroke-miterlimit:10;stroke-dasharray:none;stroke-opacity:1" />
    <path
       id="path410"
       d="m 132.50829,394.72001 c 0,-0.57 -0.46,-1.04 -1.04,-1.04 -0.58,0 -1.04,0.47 -1.04,1.04 0,0.57 0.46,1.04 1.04,1.04 0.58,0 1.04,-0.47 1.04,-1.04 z"
       style="fill:#ff0000;fill-opacity:1;fill-rule:evenodd;stroke:#800000;stroke-width:0.96;stroke-linecap:round;stroke-linejoin:round;stroke-miterlimit:10;stroke-dasharray:none;stroke-opacity:1" />
    <path
       id="path415"
       d="m 132.50829,159.52 c 0,-0.57 -0.46,-1.04 -1.04,-1.04 -0.58,0 -1.04,0.47 -1.04,1.04 0,0.57 0.46,1.04 1.04,1.04 0.58,0 1.04,-0.47 1.04,-1.04 z"
       style="fill:#ff0000;fill-opacity:1;fill-rule:evenodd;stroke:#800000;stroke-width:0.96;stroke-linecap:round;stroke-linejoin:round;stroke-miterlimit:10;stroke-dasharray:none;stroke-opacity:1" />
    <path
       id="path416"
       d="m 132.50829,394.72001 c 0,-0.57 -0.46,-1.04 -1.04,-1.04 -0.58,0 -1.04,0.47 -1.04,1.04 0,0.57 0.46,1.04 1.04,1.04 0.58,0 1.04,-0.47 1.04,-1.04 z"
       style="fill:#ff0000;fill-opacity:1;fill-rule:evenodd;stroke:#800000;stroke-width:0.96;stroke-linecap:round;stroke-linejoin:round;stroke-miterlimit:10;stroke-dasharray:none;stroke-opacity:1" />
    <path
       id="path417"
       d="m 132.50829,284.32 c 0,-0.57 -0.46,-1.04 -1.04,-1.04 -0.58,0 -1.04,0.47 -1.04,1.04 0,0.57 0.46,1.04 1.04,1.04 0.58,0 1.04,-0.47 1.04,-1.04 z"
       style="fill:#ff0000;fill-opacity:1;fill-rule:evenodd;stroke:#800000;stroke-width:0.96;stroke-linecap:round;stroke-linejoin:round;stroke-miterlimit:10;stroke-dasharray:none;stroke-opacity:1" />
    <path
       id="path419"
       d="m 132.50829,236.32 c 0,-0.57 -0.46,-1.04 -1.04,-1.04 -0.58,0 -1.04,0.47 -1.04,1.04 0,0.57 0.46,1.04 1.04,1.04 0.58,0 1.04,-0.47 1.04,-1.04 z"
       style="fill:#ff0000;fill-opacity:1;fill-rule:evenodd;stroke:#800000;stroke-width:0.96;stroke-linecap:round;stroke-linejoin:round;stroke-miterlimit:10;stroke-dasharray:none;stroke-opacity:1" />
    <path
       id="path420"
       d="m 175.70829,394.72001 c 0,-0.57 -0.46,-1.04 -1.04,-1.04 -0.58,0 -1.04,0.47 -1.04,1.04 0,0.57 0.46,1.04 1.04,1.04 0.58,0 1.04,-0.47 1.04,-1.04 z"
       style="fill:#ff0000;fill-opacity:1;fill-rule:evenodd;stroke:#800000;stroke-width:0.96;stroke-linecap:round;stroke-linejoin:round;stroke-miterlimit:10;stroke-dasharray:none;stroke-opacity:1" />
    <path
       id="path421"
       d="m 161.3083,394.72001 c 0,-0.57 -0.46,-1.04 -1.04,-1.04 -0.58,0 -1.04,0.47 -1.04,1.04 0,0.57 0.46,1.04 1.04,1.04 0.58,0 1.04,-0.47 1.04,-1.04 z"
       style="fill:#ff0000;fill-opacity:1;fill-rule:evenodd;stroke:#800000;stroke-width:0.96;stroke-linecap:round;stroke-linejoin:round;stroke-miterlimit:10;stroke-dasharray:none;stroke-opacity:1" />
    <path
       id="path422"
       d="m 132.50829,159.52 c 0,-0.57 -0.46,-1.04 -1.04,-1.04 -0.58,0 -1.04,0.47 -1.04,1.04 0,0.57 0.46,1.04 1.04,1.04 0.58,0 1.04,-0.47 1.04,-1.04 z"
       style="fill:#ff0000;fill-opacity:1;fill-rule:evenodd;stroke:#800000;stroke-width:0.96;stroke-linecap:round;stroke-linejoin:round;stroke-miterlimit:10;stroke-dasharray:none;stroke-opacity:1" />
    <path
       id="path423"
       d="m 132.50829,159.52 c 0,-0.57 -0.46,-1.04 -1.04,-1.04 -0.58,0 -1.04,0.47 -1.04,1.04 0,0.57 0.46,1.04 1.04,1.04 0.58,0 1.04,-0.47 1.04,-1.04 z"
       style="fill:#ff0000;fill-opacity:1;fill-rule:evenodd;stroke:#800000;stroke-width:0.96;stroke-linecap:round;stroke-linejoin:round;stroke-miterlimit:10;stroke-dasharray:none;stroke-opacity:1" />
    <path
       id="path424"
       d="m 132.50829,394.72001 c 0,-0.57 -0.46,-1.04 -1.04,-1.04 -0.58,0 -1.04,0.47 -1.04,1.04 0,0.57 0.46,1.04 1.04,1.04 0.58,0 1.04,-0.47 1.04,-1.04 z"
       style="fill:#ff0000;fill-opacity:1;fill-rule:evenodd;stroke:#800000;stroke-width:0.96;stroke-linecap:round;stroke-linejoin:round;stroke-miterlimit:10;stroke-dasharray:none;stroke-opacity:1" />
    <path
       id="path448"
       d="m 132.50829,159.52 c 0,-0.57 -0.46,-1.04 -1.04,-1.04 -0.58,0 -1.04,0.47 -1.04,1.04 0,0.57 0.46,1.04 1.04,1.04 0.58,0 1.04,-0.47 1.04,-1.04 z"
       style="fill:#800000;fill-opacity:1;fill-rule:evenodd;stroke:#800000;stroke-width:0.96;stroke-linecap:round;stroke-linejoin:round;stroke-miterlimit:10;stroke-dasharray:none;stroke-opacity:1" />
    <path
       id="path449"
       d="m 131.38828,226.64 v 19.2"
       style="fill:none;stroke:#ff0000;stroke-width:0.96;stroke-linecap:round;stroke-linejoin:round;stroke-miterlimit:10;stroke-dasharray:none;stroke-opacity:1" />
    <path
       id="path450"
       d="m 131.38828,265.04 v 24"
       style="fill:none;stroke:#ff0000;stroke-width:0.96;stroke-linecap:round;stroke-linejoin:round;stroke-miterlimit:10;stroke-dasharray:none;stroke-opacity:1" />
    <path
       id="path451"
       d="m 131.38828,308.23999 v 38.4"
       style="fill:none;stroke:#ff0000;stroke-width:0.96;stroke-linecap:round;stroke-linejoin:round;stroke-miterlimit:10;stroke-dasharray:none;stroke-opacity:1" />
    <path
       id="path453"
       d="m 132.50829,394.72001 c 0,-0.57 -0.46,-1.04 -1.04,-1.04 -0.58,0 -1.04,0.47 -1.04,1.04 0,0.57 0.46,1.04 1.04,1.04 0.58,0 1.04,-0.47 1.04,-1.04 z"
       style="fill:#800000;fill-opacity:1;fill-rule:evenodd;stroke:#800000;stroke-width:0.96;stroke-linecap:round;stroke-linejoin:round;stroke-miterlimit:10;stroke-dasharray:none;stroke-opacity:1" />
    <path
       id="path454"
       d="M 160.18829,284.23999 V 289.04"
       style="fill:none;stroke:#ff0000;stroke-width:0.96;stroke-linecap:round;stroke-linejoin:round;stroke-miterlimit:10;stroke-dasharray:none;stroke-opacity:1" />
    <path
       id="path455"
       d="m 131.38828,284.23999 h 28.80001"
       style="fill:none;stroke:#ff0000;stroke-width:0.96;stroke-linecap:round;stroke-linejoin:round;stroke-miterlimit:10;stroke-dasharray:none;stroke-opacity:1" />
    <path
       id="path456"
       d="m 132.50829,284.32 c 0,-0.57 -0.46,-1.04 -1.04,-1.04 -0.58,0 -1.04,0.47 -1.04,1.04 0,0.57 0.46,1.04 1.04,1.04 0.58,0 1.04,-0.47 1.04,-1.04 z"
       style="fill:#800000;fill-opacity:1;fill-rule:evenodd;stroke:#800000;stroke-width:0.96;stroke-linecap:round;stroke-linejoin:round;stroke-miterlimit:10;stroke-dasharray:none;stroke-opacity:1" />
    <path
       id="path457"
       d="M 160.18829,308.23999 V 313.04"
       style="fill:none;stroke:#ff0000;stroke-width:0.96;stroke-linecap:round;stroke-linejoin:round;stroke-miterlimit:10;stroke-dasharray:none;stroke-opacity:1" />
    <path
       id="path458"
       d="m 131.06466,316.59987 h 28.80001"
       style="fill:none;stroke:#ff0000;stroke-width:0.96;stroke-linecap:round;stroke-linejoin:round;stroke-miterlimit:10;stroke-dasharray:none;stroke-opacity:1" />
    <path
       id="path459"
       d="m 132.50829,316.67987 c 0,-0.57 -0.46,-1.04 -1.04,-1.04 -0.58,0 -1.04,0.47 -1.04,1.04 0,0.57 0.46,1.04 1.04,1.04 0.58,0 1.04,-0.47 1.04,-1.04 z"
       style="fill:#800000;fill-opacity:1;fill-rule:evenodd;stroke:#800000;stroke-width:0.96;stroke-linecap:round;stroke-linejoin:round;stroke-miterlimit:10;stroke-dasharray:none;stroke-opacity:1" />
    <path
       id="path460"
       d="M 174.5883,236.23999 V 289.04"
       style="fill:none;stroke:#ff0000;stroke-width:0.96;stroke-linecap:round;stroke-linejoin:round;stroke-miterlimit:10;stroke-dasharray:none;stroke-opacity:1" />
    <path
       id="path461"
       d="M 131.38828,236.23999 H 174.5883"
       style="fill:none;stroke:#ff0000;stroke-width:0.96;stroke-linecap:round;stroke-linejoin:round;stroke-miterlimit:10;stroke-dasharray:none;stroke-opacity:1" />
    <path
       id="path462"
       d="m 132.50829,236.32 c 0,-0.57 -0.46,-1.04 -1.04,-1.04 -0.58,0 -1.04,0.47 -1.04,1.04 0,0.57 0.46,1.04 1.04,1.04 0.58,0 1.04,-0.47 1.04,-1.04 z"
       style="fill:#800000;fill-opacity:1;fill-rule:evenodd;stroke:#800000;stroke-width:0.96;stroke-linecap:round;stroke-linejoin:round;stroke-miterlimit:10;stroke-dasharray:none;stroke-opacity:1" />
    <path
       id="path463"
       d="m 174.5883,308.23999 v 19.20002"
       style="fill:none;stroke:#ff0000;stroke-width:0.96;stroke-linecap:round;stroke-linejoin:round;stroke-miterlimit:10;stroke-dasharray:none;stroke-opacity:1" />
    <path
       id="path464"
       d="m 160.18829,313.04 v 14.40001"
       style="fill:none;stroke:#ff0000;stroke-width:0.96;stroke-linecap:round;stroke-linejoin:round;stroke-miterlimit:10;stroke-dasharray:none;stroke-opacity:1" />
    <path
       id="path465"
       d="m 174.5883,346.63999 v 48"
       style="fill:none;stroke:#0000ff;stroke-width:0.96;stroke-linecap:round;stroke-linejoin:round;stroke-miterlimit:10;stroke-dasharray:none;stroke-opacity:1" />
    <path
       id="path466"
       d="m 175.70829,394.72001 c 0,-0.57 -0.46,-1.04 -1.04,-1.04 -0.58,0 -1.04,0.47 -1.04,1.04 0,0.57 0.46,1.04 1.04,1.04 0.58,0 1.04,-0.47 1.04,-1.04 z"
       style="fill:#800000;fill-opacity:1;fill-rule:evenodd;stroke:#800000;stroke-width:0.96;stroke-linecap:round;stroke-linejoin:round;stroke-miterlimit:10;stroke-dasharray:none;stroke-opacity:1" />
    <path
       id="path467"
       d="m 160.18829,346.63999 v 48"
       style="fill:none;stroke:#0000ff;stroke-width:0.96;stroke-linecap:round;stroke-linejoin:round;stroke-miterlimit:10;stroke-dasharray:none;stroke-opacity:1" />
    <path
       id="path468"
       d="m 161.3083,394.72001 c 0,-0.57 -0.46,-1.04 -1.04,-1.04 -0.58,0 -1.04,0.47 -1.04,1.04 0,0.57 0.46,1.04 1.04,1.04 0.58,0 1.04,-0.47 1.04,-1.04 z"
       style="fill:#800000;fill-opacity:1;fill-rule:evenodd;stroke:#800000;stroke-width:0.96;stroke-linecap:round;stroke-linejoin:round;stroke-miterlimit:10;stroke-dasharray:none;stroke-opacity:1" />
    <path
       id="path469"
       d="m 132.50829,159.52 c 0,-0.57 -0.46,-1.04 -1.04,-1.04 -0.58,0 -1.04,0.47 -1.04,1.04 0,0.57 0.46,1.04 1.04,1.04 0.58,0 1.04,-0.47 1.04,-1.04 z"
       style="fill:#800000;fill-opacity:1;fill-rule:evenodd;stroke:#800000;stroke-width:0.96;stroke-linecap:round;stroke-linejoin:round;stroke-miterlimit:10;stroke-dasharray:none;stroke-opacity:1" />
    <path
       id="path470"
       d="m 131.38828,159.44 v 33.6"
       style="fill:none;stroke:#ff0000;stroke-width:0.96;stroke-linecap:round;stroke-linejoin:round;stroke-miterlimit:10;stroke-dasharray:none;stroke-opacity:1" />
    <path
       id="path471"
       d="m 132.50829,159.52 c 0,-0.57 -0.46,-1.04 -1.04,-1.04 -0.58,0 -1.04,0.47 -1.04,1.04 0,0.57 0.46,1.04 1.04,1.04 0.58,0 1.04,-0.47 1.04,-1.04 z"
       style="fill:#800000;fill-opacity:1;fill-rule:evenodd;stroke:#800000;stroke-width:0.96;stroke-linecap:round;stroke-linejoin:round;stroke-miterlimit:10;stroke-dasharray:none;stroke-opacity:1" />
    <path
       id="path472"
       d="m 131.38828,365.84 v 28.79999"
       style="fill:none;stroke:#0000ff;stroke-width:0.96;stroke-linecap:round;stroke-linejoin:round;stroke-miterlimit:10;stroke-dasharray:none;stroke-opacity:1" />
    <path
       id="path473"
       d="m 132.50829,394.72001 c 0,-0.57 -0.46,-1.04 -1.04,-1.04 -0.58,0 -1.04,0.47 -1.04,1.04 0,0.57 0.46,1.04 1.04,1.04 0.58,0 1.04,-0.47 1.04,-1.04 z"
       style="fill:#800000;fill-opacity:1;fill-rule:evenodd;stroke:#800000;stroke-width:0.96;stroke-linecap:round;stroke-linejoin:round;stroke-miterlimit:10;stroke-dasharray:none;stroke-opacity:1" />
  </g>
</svg>
