<?xml version="1.0" encoding="UTF-8" standalone="no"?>
<!-- Created with Inkscape (http://www.inkscape.org/) -->

<svg
   width="189.73424mm"
   height="129.11737mm"
   viewBox="0 0 189.73424 129.11737"
   version="1.1"
   id="svg1"
   xmlns="http://www.w3.org/2000/svg"
   xmlns:svg="http://www.w3.org/2000/svg">
  <defs
     id="defs1" />
  <g
     id="layer1"
     transform="translate(-10.018509,-42.713266)">
    <path
       id="path381"
       d="m 80.491161,45.77573 v -0.52865 h 1.630273 v 0.52865 z m 4.92397,-3.040331 h 0.572827 v 2.511573 c 0,0.440721 -0.05465,0.787647 -0.153799,1.035453 -0.08807,0.253658 -0.264374,0.45724 -0.528652,0.6169 -0.252985,0.165202 -0.589347,0.242459 -1.013444,0.242459 -0.396504,0 -0.727006,-0.0661 -0.991396,-0.198249 -0.253729,-0.143345 -0.434867,-0.352249 -0.550826,-0.616901 -0.104222,-0.264307 -0.153799,-0.62239 -0.153799,-1.079522 v -2.511573 h 0.572795 v 2.511573 c 0,0.368777 0.02566,0.649942 0.08775,0.837208 0.07159,0.176399 0.187267,0.319201 0.352138,0.418869 0.176244,0.08794 0.385797,0.132147 0.638877,0.132147 0.424223,0 0.727086,-0.09378 0.903298,-0.286191 0.176259,-0.18705 0.264373,-0.556307 0.264373,-1.101587 z m 3.001747,4.340161 h -0.528651 v -3.392798 c -0.120854,0.120949 -0.286042,0.242458 -0.506809,0.37464 -0.209301,0.120948 -0.391167,0.209449 -0.550748,0.264307 v -0.506802 c 0.291918,-0.143361 0.550748,-0.313877 0.771072,-0.506801 0.231332,-0.203572 0.396457,-0.401818 0.484396,-0.59484 h 0.330471 z m 0,0"
       style="fill:#000000;fill-opacity:1;fill-rule:nonzero;stroke:none;stroke-width:1.41"
       aria-label="  -U1" />
    <path
       id="path383"
       d="m 70.372117,56.323223 h 6.768057"
       style="fill:none;stroke:#000000;stroke-width:0.902398;stroke-linecap:round;stroke-linejoin:round;stroke-miterlimit:10;stroke-dasharray:none;stroke-opacity:1" />
    <path
       id="path384"
       d="m 101.95625,56.323223 h 2.25593"
       style="fill:none;stroke:#000000;stroke-width:0.902398;stroke-linecap:round;stroke-linejoin:round;stroke-miterlimit:10;stroke-dasharray:none;stroke-opacity:1" />
    <path
       id="path385"
       d="M 77.140174,49.555214 H 97.444232 V 63.09123 H 77.140174 Z"
       style="fill:#c0c0c0;fill-opacity:1;fill-rule:evenodd;stroke:#c0c0c0;stroke-width:0.902398;stroke-linecap:round;stroke-linejoin:round;stroke-miterlimit:10;stroke-dasharray:none;stroke-opacity:1" />
    <path
       id="path386"
       d="m 101.73061,56.210406 c 0,-1.170278 -0.95882,-2.143223 -2.143214,-2.143223 -1.184413,0 -2.143164,0.972945 -2.143164,2.143223 0,1.170281 0.958751,2.143219 2.143164,2.143219 1.184394,0 2.143214,-0.972938 2.143214,-2.143219 z"
       style="fill:#c0c0c0;fill-opacity:1;fill-rule:evenodd;stroke:#c0c0c0;stroke-width:0.902398;stroke-linecap:round;stroke-linejoin:round;stroke-miterlimit:10;stroke-dasharray:none;stroke-opacity:1" />
    <path
       id="path387"
       d="M 77.140174,49.555214 H 97.444232"
       style="fill:none;stroke:#000000;stroke-width:0.902398;stroke-linecap:round;stroke-linejoin:round;stroke-miterlimit:10;stroke-dasharray:none;stroke-opacity:1" />
    <path
       id="path388"
       d="M 97.444232,49.555214 V 63.09123"
       style="fill:none;stroke:#000000;stroke-width:0.902398;stroke-linecap:round;stroke-linejoin:round;stroke-miterlimit:10;stroke-dasharray:none;stroke-opacity:1" />
    <path
       id="path389"
       d="M 97.444232,63.09123 H 77.140174"
       style="fill:none;stroke:#000000;stroke-width:0.902398;stroke-linecap:round;stroke-linejoin:round;stroke-miterlimit:10;stroke-dasharray:none;stroke-opacity:1" />
    <path
       id="path390"
       d="M 77.140174,63.09123 V 49.555214"
       style="fill:none;stroke:#000000;stroke-width:0.902398;stroke-linecap:round;stroke-linejoin:round;stroke-miterlimit:10;stroke-dasharray:none;stroke-opacity:1" />
    <path
       id="path391"
       d="m 101.73061,56.210406 c 0,-1.170278 -0.95882,-2.143223 -2.143214,-2.143223 -1.184413,0 -2.143164,0.972945 -2.143164,2.143223 0,1.170281 0.958751,2.143219 2.143164,2.143219 1.184394,0 2.143214,-0.972938 2.143214,-2.143219 z"
       style="fill:none;stroke:#000000;stroke-width:0.902398;stroke-linecap:round;stroke-linejoin:round;stroke-miterlimit:10;stroke-dasharray:none;stroke-opacity:1" />
    <path
       id="path392"
       d="m 10.018509,56.097375 v -4.340159 h 0.572824 v 4.340159 z m 2.781425,0 v -1.035454 h -1.894651 v -0.484417 l 1.982814,-2.820024 h 0.440707 v 2.820024 h 0.594855 v 0.484417 h -0.594855 v 1.035454 z m 0,-1.52014 v -1.960804 l -1.36589,1.960804 z m 0,0"
       style="fill:#000000;fill-opacity:1;fill-rule:nonzero;stroke:none;stroke-width:1.41"
       aria-label="   I4" />
    <path
       id="path394"
       d="M 36.532036,56.323223 H 29.764094"
       style="fill:none;stroke:#000000;stroke-width:0.902398;stroke-linecap:round;stroke-linejoin:round;stroke-miterlimit:10;stroke-dasharray:none;stroke-opacity:1" />
    <path
       id="path395"
       d="M 29.764094,56.323223 22.996077,51.811196"
       style="fill:none;stroke:#000000;stroke-width:0.902398;stroke-linecap:round;stroke-linejoin:round;stroke-miterlimit:10;stroke-dasharray:none;stroke-opacity:1" />
    <path
       id="path396"
       d="m 29.764094,56.323223 -6.768017,4.51202"
       style="fill:none;stroke:#000000;stroke-width:0.902398;stroke-linecap:round;stroke-linejoin:round;stroke-miterlimit:10;stroke-dasharray:none;stroke-opacity:1" />
    <path
       id="path397"
       d="M 22.996077,51.811196 H 16.228024"
       style="fill:none;stroke:#000000;stroke-width:0.902398;stroke-linecap:round;stroke-linejoin:round;stroke-miterlimit:10;stroke-dasharray:none;stroke-opacity:1" />
    <path
       id="path398"
       d="M 22.996077,60.835243 H 16.228024"
       style="fill:none;stroke:#000000;stroke-width:0.902398;stroke-linecap:round;stroke-linejoin:round;stroke-miterlimit:10;stroke-dasharray:none;stroke-opacity:1" />
    <path
       id="path399"
       d="m 16.228024,51.811196 v 9.024047"
       style="fill:none;stroke:#000000;stroke-width:0.902398;stroke-linecap:round;stroke-linejoin:round;stroke-miterlimit:10;stroke-dasharray:none;stroke-opacity:1" />
    <path
       id="path400"
       d="m 18.726413,56.218562 c 0,-0.512135 0.0481,-0.925302 0.154227,-1.233753 0.115675,-0.319201 0.275396,-0.5618 0.484403,-0.727 0.204161,-0.1764 0.468429,-0.264343 0.793141,-0.264343 0.219948,0 0.418858,0.0549 0.594854,0.154005 0.176253,0.08794 0.319825,0.220096 0.440706,0.396489 0.115674,0.1764 0.203427,0.396488 0.264381,0.66092 0.07123,0.253658 0.110162,0.589351 0.110162,1.013446 0,0.51799 -0.05471,0.925352 -0.153847,1.233747 -0.104285,0.308554 -0.264379,0.55082 -0.484402,0.727051 -0.209301,0.165204 -0.462555,0.242468 -0.771145,0.242468 -0.429507,0 -0.760019,-0.143346 -0.991351,-0.440726 -0.297428,-0.363448 -0.440744,-0.952851 -0.440744,-1.762507 z m 0.550792,0 c 0,0.705042 0.07711,1.178696 0.242349,1.410037 0.176253,0.236619 0.385848,0.352249 0.638918,0.352249 0.231332,0 0.429543,-0.115626 0.594855,-0.352249 0.176253,-0.231296 0.264379,-0.704995 0.264379,-1.410037 0,-0.715972 -0.08777,-1.195171 -0.264379,-1.431997 -0.165237,-0.231295 -0.36881,-0.35225 -0.61685,-0.35225 -0.236474,0 -0.429545,0.104476 -0.57286,0.308554 -0.192777,0.264343 -0.286045,0.760097 -0.286045,1.476066 z m 0,0"
       style="fill:#000000;fill-opacity:1;fill-rule:nonzero;stroke:none;stroke-width:1.41"
       aria-label="0    " />
    <path
       id="path401"
       d="m 196.15541,55.634699 c 0.2754,0.176401 0.52865,0.308554 0.74907,0.396487 l -0.17624,0.396489 c -0.30846,-0.10446 -0.61686,-0.28083 -0.9253,-0.52865 -0.32496,0.1764 -0.67748,0.264307 -1.05753,0.264307 -0.39648,0 -0.76004,-0.08794 -1.07954,-0.264307 -0.32497,-0.187049 -0.57274,-0.451913 -0.74904,-0.793085 -0.16523,-0.352801 -0.24235,-0.738086 -0.24235,-1.167668 0,-0.440721 0.0774,-0.826176 0.24235,-1.167671 0.17625,-0.352799 0.42418,-0.6169 0.74904,-0.793135 0.31909,-0.187049 0.68298,-0.286154 1.07954,-0.286154 0.39648,0 0.75459,0.09911 1.07956,0.286154 0.3191,0.192924 0.56181,0.457241 0.72701,0.793135 0.17626,0.341603 0.26439,0.721515 0.26439,1.145607 0,0.368778 -0.0607,0.699505 -0.17626,0.991435 -0.10422,0.280831 -0.26437,0.523324 -0.48495,0.727002 z m -1.2558,-0.727003 c 0.33635,0.08794 0.60587,0.220096 0.81514,0.396488 0.33634,-0.308553 0.50679,-0.771071 0.50679,-1.387976 0,-0.335726 -0.0607,-0.63891 -0.17624,-0.903236 -0.12086,-0.264306 -0.29743,-0.468429 -0.52866,-0.616901 -0.21996,-0.143346 -0.47909,-0.220096 -0.77111,-0.220096 -0.42955,0 -0.78212,0.148683 -1.05748,0.440721 -0.28091,0.297354 -0.41835,0.738032 -0.41835,1.321893 0,0.561797 0.13733,0.99138 0.41835,1.299831 0.2754,0.297353 0.6279,0.440721 1.05748,0.440721 0.20342,0 0.40233,-0.03195 0.59482,-0.110305 -0.19278,-0.115626 -0.3853,-0.198249 -0.57279,-0.242458 z m 4.05926,1.189679 h -0.52865 v -3.392798 c -0.12086,0.120996 -0.28605,0.242458 -0.5068,0.374637 -0.2093,0.120948 -0.39118,0.209449 -0.55079,0.264306 v -0.506801 c 0.29191,-0.143361 0.55079,-0.313877 0.77107,-0.506801 0.23133,-0.203573 0.39649,-0.401819 0.48443,-0.594837 h 0.33048 z m 0,0"
       style="fill:#000000;fill-opacity:1;fill-rule:nonzero;stroke:none;stroke-width:1.41"
       aria-label="   Q1" />
    <path
       id="path403"
       d="m 165.12433,56.323223 h 6.76798"
       style="fill:none;stroke:#000000;stroke-width:0.902398;stroke-linecap:round;stroke-linejoin:round;stroke-miterlimit:10;stroke-dasharray:none;stroke-opacity:1" />
    <path
       id="path404"
       d="m 171.89231,56.323223 6.76801,-4.512027"
       style="fill:none;stroke:#000000;stroke-width:0.902398;stroke-linecap:round;stroke-linejoin:round;stroke-miterlimit:10;stroke-dasharray:none;stroke-opacity:1" />
    <path
       id="path405"
       d="m 171.89231,56.323223 6.76801,4.51202"
       style="fill:none;stroke:#000000;stroke-width:0.902398;stroke-linecap:round;stroke-linejoin:round;stroke-miterlimit:10;stroke-dasharray:none;stroke-opacity:1" />
    <path
       id="path406"
       d="m 178.66032,51.811196 h 6.76806"
       style="fill:none;stroke:#000000;stroke-width:0.902398;stroke-linecap:round;stroke-linejoin:round;stroke-miterlimit:10;stroke-dasharray:none;stroke-opacity:1" />
    <path
       id="path407"
       d="m 178.66032,60.835243 h 6.76806"
       style="fill:none;stroke:#000000;stroke-width:0.902398;stroke-linecap:round;stroke-linejoin:round;stroke-miterlimit:10;stroke-dasharray:none;stroke-opacity:1" />
    <path
       id="path408"
       d="m 185.42838,51.811196 v 9.024047"
       style="fill:none;stroke:#000000;stroke-width:0.902398;stroke-linecap:round;stroke-linejoin:round;stroke-miterlimit:10;stroke-dasharray:none;stroke-opacity:1" />
    <path
       id="path409"
       d="m 179.80266,56.218562 c 0,-0.512135 0.0482,-0.925302 0.1538,-1.233753 0.11563,-0.319201 0.27538,-0.5618 0.48443,-0.727 0.20343,-0.1764 0.46843,-0.264343 0.79315,-0.264343 0.21995,0 0.41886,0.0549 0.59482,0.154005 0.17625,0.08794 0.31982,0.220096 0.44074,0.396489 0.11563,0.1764 0.20342,0.396488 0.26437,0.66092 0.0716,0.253658 0.11008,0.589351 0.11008,1.013446 0,0.51799 -0.0546,0.925352 -0.15379,1.233747 -0.1047,0.308554 -0.26439,0.55082 -0.48497,0.727051 -0.2093,0.165204 -0.46256,0.242468 -0.77107,0.242468 -0.42953,0 -0.76008,-0.143346 -0.99138,-0.440726 -0.29743,-0.363448 -0.44071,-0.952851 -0.44071,-1.762507 z m 0.55083,0 c 0,0.705042 0.0771,1.178696 0.24236,1.410037 0.17624,0.236619 0.38584,0.352249 0.63891,0.352249 0.23133,0 0.42954,-0.115626 0.59486,-0.352249 0.17625,-0.231296 0.26437,-0.704995 0.26437,-1.410037 0,-0.715972 -0.0877,-1.195171 -0.26437,-1.431997 -0.16524,-0.231295 -0.36877,-0.35225 -0.61685,-0.35225 -0.23648,0 -0.42954,0.104476 -0.57286,0.308554 -0.19278,0.264343 -0.28606,0.760097 -0.28606,1.476066 z m 0,0"
       style="fill:#000000;fill-opacity:1;fill-rule:nonzero;stroke:none;stroke-width:1.41"
       aria-label="0    " />
    <path
       id="path410"
       d="m 196.15541,116.54575 c 0.2754,0.17625 0.52865,0.30844 0.74907,0.39649 l -0.17624,0.39651 c -0.30846,-0.1047 -0.61686,-0.28091 -0.9253,-0.52865 -0.32496,0.17624 -0.67748,0.26437 -1.05753,0.26437 -0.39648,0 -0.76004,-0.0877 -1.07954,-0.26437 -0.32497,-0.18691 -0.57274,-0.45141 -0.74904,-0.79316 -0.16523,-0.35288 -0.24235,-0.73806 -0.24235,-1.16768 0,-0.4407 0.0774,-0.82619 0.24235,-1.16767 0.17625,-0.35214 0.42418,-0.61686 0.74904,-0.79308 0.31909,-0.1869 0.68298,-0.28677 1.07954,-0.28677 0.39648,0 0.75459,0.0992 1.07956,0.28677 0.3191,0.19278 0.56181,0.45724 0.72701,0.79308 0.17626,0.34148 0.26439,0.72157 0.26439,1.14568 0,0.36877 -0.0607,0.6995 -0.17626,0.99135 -0.10422,0.28089 -0.26437,0.52331 -0.48495,0.72709 z m -1.2558,-0.72707 c 0.33635,0.0877 0.60587,0.21996 0.81514,0.39651 0.33634,-0.30844 0.50679,-0.77115 0.50679,-1.388 0,-0.33634 -0.0607,-0.63892 -0.17624,-0.90329 -0.12086,-0.26439 -0.29743,-0.46843 -0.52866,-0.6169 -0.21996,-0.14318 -0.47909,-0.21994 -0.77111,-0.21994 -0.42955,0 -0.78212,0.14873 -1.05748,0.44071 -0.28091,0.29742 -0.41835,0.73805 -0.41835,1.32185 0,0.56182 0.13733,0.99143 0.41835,1.29984 0.2754,0.29743 0.6279,0.44072 1.05748,0.44072 0.20342,0 0.40233,-0.0331 0.59482,-0.11008 -0.19278,-0.11563 -0.3853,-0.19829 -0.57279,-0.24236 z m 4.85239,0.68299 v 0.50681 h -2.86404 c 0,-0.13225 0.022,-0.25373 0.0661,-0.37464 0.0713,-0.18691 0.1869,-0.37999 0.35214,-0.57283 0.15972,-0.1869 0.3965,-0.4077 0.70505,-0.66099 0.46843,-0.37998 0.78213,-0.68291 0.94732,-0.90323 0.15974,-0.23134 0.24235,-0.45139 0.24235,-0.66099 0,-0.20343 -0.0771,-0.37997 -0.21994,-0.52865 -0.14873,-0.14319 -0.34701,-0.21995 -0.59483,-0.21995 -0.25373,0 -0.45723,0.0827 -0.61692,0.24236 -0.14873,0.14873 -0.21995,0.36351 -0.21995,0.63891 l -0.55079,-0.066 c 0.0257,-0.40769 0.16524,-0.71603 0.4189,-0.92536 0.24785,-0.21995 0.57829,-0.33047 0.99135,-0.33047 0.40769,0 0.73255,0.12085 0.96939,0.35213 0.24786,0.23647 0.37462,0.52332 0.37462,0.85924 0,0.17624 -0.0375,0.35214 -0.11024,0.52865 -0.0605,0.16523 -0.17626,0.34149 -0.35214,0.52865 -0.16524,0.17624 -0.43487,0.42955 -0.81514,0.74907 -0.32497,0.26437 -0.52865,0.45191 -0.61684,0.55083 -0.0881,0.0877 -0.16525,0.1869 -0.21996,0.28604 z m 0,0"
       style="fill:#000000;fill-opacity:1;fill-rule:nonzero;stroke:none;stroke-width:1.41"
       aria-label="   Q2" />
    <path
       id="path412"
       d="m 165.12433,117.23535 h 6.76798"
       style="fill:none;stroke:#000000;stroke-width:0.902398;stroke-linecap:round;stroke-linejoin:round;stroke-miterlimit:10;stroke-dasharray:none;stroke-opacity:1" />
    <path
       id="path413"
       d="m 171.89231,117.23535 6.76801,-4.51204"
       style="fill:none;stroke:#000000;stroke-width:0.902398;stroke-linecap:round;stroke-linejoin:round;stroke-miterlimit:10;stroke-dasharray:none;stroke-opacity:1" />
    <path
       id="path414"
       d="m 171.89231,117.23535 6.76801,4.51197"
       style="fill:none;stroke:#000000;stroke-width:0.902398;stroke-linecap:round;stroke-linejoin:round;stroke-miterlimit:10;stroke-dasharray:none;stroke-opacity:1" />
    <path
       id="path415"
       d="m 178.66032,112.72331 h 6.76806"
       style="fill:none;stroke:#000000;stroke-width:0.902398;stroke-linecap:round;stroke-linejoin:round;stroke-miterlimit:10;stroke-dasharray:none;stroke-opacity:1" />
    <path
       id="path416"
       d="m 178.66032,121.74732 h 6.76806"
       style="fill:none;stroke:#000000;stroke-width:0.902398;stroke-linecap:round;stroke-linejoin:round;stroke-miterlimit:10;stroke-dasharray:none;stroke-opacity:1" />
    <path
       id="path417"
       d="m 185.42838,112.72331 v 9.02401"
       style="fill:none;stroke:#000000;stroke-width:0.902398;stroke-linecap:round;stroke-linejoin:round;stroke-miterlimit:10;stroke-dasharray:none;stroke-opacity:1" />
    <path
       id="path418"
       d="m 179.80266,117.12962 c 0,-0.51211 0.0482,-0.9253 0.1538,-1.23378 0.11563,-0.3191 0.27538,-0.56177 0.48443,-0.72704 0.20343,-0.17626 0.46843,-0.26439 0.79315,-0.26439 0.21995,0 0.41886,0.0546 0.59482,0.1538 0.17625,0.0877 0.31982,0.21996 0.44074,0.3965 0.11563,0.17625 0.20342,0.39646 0.26437,0.66091 0.0716,0.253 0.11008,0.58937 0.11008,1.01343 0,0.51749 -0.0546,0.92533 -0.15379,1.23379 -0.1047,0.30843 -0.26439,0.55074 -0.48497,0.727 -0.2093,0.16524 -0.46256,0.24234 -0.77107,0.24234 -0.42953,0 -0.76008,-0.14318 -0.99138,-0.44069 -0.29743,-0.36353 -0.44071,-0.95288 -0.44071,-1.76255 z m 0.55083,0 c 0,0.70498 0.0771,1.17863 0.24236,1.41 0.17624,0.23646 0.38584,0.35214 0.63891,0.35214 0.23133,0 0.42954,-0.11563 0.59486,-0.35214 0.17625,-0.23133 0.26437,-0.70502 0.26437,-1.41 0,-0.71604 -0.0877,-1.19523 -0.26437,-1.43207 -0.16524,-0.23134 -0.36877,-0.35214 -0.61685,-0.35214 -0.23648,0 -0.42954,0.10422 -0.57286,0.30845 -0.19278,0.26437 -0.28606,0.7601 -0.28606,1.47613 z m 0,0"
       style="fill:#000000;fill-opacity:1;fill-rule:nonzero;stroke:none;stroke-width:1.41"
       aria-label="0    " />
    <path
       id="path419"
       d="m 127.86394,93.148509 v -0.528652 h 1.63028 v 0.528652 z m 4.92397,-3.040332 h 0.57282 v 2.511569 c 0,0.440712 -0.0546,0.78764 -0.1538,1.035461 -0.0877,0.253729 -0.26439,0.457232 -0.52866,0.616892 -0.253,0.165235 -0.58934,0.242341 -1.01345,0.242341 -0.39649,0 -0.72704,-0.06605 -0.99138,-0.198292 -0.25375,-0.143187 -0.43539,-0.352139 -0.55085,-0.616876 -0.10422,-0.264389 -0.1538,-0.622404 -0.1538,-1.079557 v -2.51157 h 0.57283 v 2.51157 c 0,0.369324 0.0257,0.64998 0.0881,0.8372 0.0713,0.176259 0.18688,0.319098 0.35214,0.418901 0.17624,0.08775 0.38584,0.132258 0.6389,0.132258 0.4242,0 0.72706,-0.09361 0.9033,-0.286041 0.17626,-0.186904 0.26439,-0.556307 0.26439,-1.10159 z m 1.01893,3.194559 0.52865,-0.06605 c 0.0547,0.29743 0.15972,0.506809 0.30844,0.638924 0.14319,0.132258 0.3191,0.198276 0.52865,0.198276 0.24785,0 0.46259,-0.07714 0.63891,-0.242341 0.17626,-0.176259 0.26439,-0.396504 0.26439,-0.660988 0,-0.231333 -0.0827,-0.429545 -0.24236,-0.59486 -0.16523,-0.159723 -0.36877,-0.24234 -0.61684,-0.24234 -0.10423,0 -0.23134,0.02202 -0.37465,0.06605 l 0.0661,-0.462601 c 0.0257,0 0.0546,0 0.0877,0 0.21996,0 0.41831,-0.05465 0.59483,-0.176244 0.1869,-0.115627 0.28604,-0.29743 0.28604,-0.550763 0,-0.186903 -0.066,-0.352139 -0.19829,-0.484397 -0.1321,-0.132257 -0.30256,-0.198291 -0.5068,-0.198291 -0.2093,0 -0.38584,0.06605 -0.52865,0.198291 -0.13226,0.132258 -0.21994,0.330471 -0.26437,0.594812 l -0.52865,-0.110082 c 0.0546,-0.352139 0.20342,-0.622389 0.44074,-0.815137 0.23133,-0.203423 0.51796,-0.308438 0.8592,-0.308438 0.23133,0 0.44607,0.05465 0.63891,0.153799 0.20342,0.104223 0.35802,0.242341 0.46255,0.418854 0.11563,0.176259 0.17626,0.368786 0.17626,0.572796 0,0.176243 -0.0546,0.34699 -0.1538,0.506793 -0.10422,0.148731 -0.25298,0.264389 -0.44069,0.352139 0.24785,0.06066 0.44069,0.186903 0.57281,0.374646 0.14319,0.192779 0.21996,0.429513 0.21996,0.70499 0,0.385844 -0.14319,0.705037 -0.41835,0.969426 -0.26439,0.253001 -0.61138,0.374647 -1.03546,0.374647 -0.38584,0 -0.69949,-0.110242 -0.94736,-0.330471 -0.25298,-0.21996 -0.39117,-0.512163 -0.41888,-0.881233 z m 0,0"
       style="fill:#000000;fill-opacity:1;fill-rule:nonzero;stroke:none;stroke-width:1.41"
       aria-label="  -U3" />
    <path
       id="path422"
       d="m 117.74821,103.6993 h 6.76806"
       style="fill:none;stroke:#000000;stroke-width:0.902398;stroke-linecap:round;stroke-linejoin:round;stroke-miterlimit:10;stroke-dasharray:none;stroke-opacity:1" />
    <path
       id="path423"
       d="m 117.74821,117.23535 h 6.76806"
       style="fill:none;stroke:#000000;stroke-width:0.902398;stroke-linecap:round;stroke-linejoin:round;stroke-miterlimit:10;stroke-dasharray:none;stroke-opacity:1" />
    <path
       id="path424"
       d="m 144.82031,117.23535 h 6.76795"
       style="fill:none;stroke:#000000;stroke-width:0.902398;stroke-linecap:round;stroke-linejoin:round;stroke-miterlimit:10;stroke-dasharray:none;stroke-opacity:1" />
    <path
       id="path425"
       d="m 124.51627,96.931306 h 20.30404 v 27.072054 h -20.30404 z"
       style="fill:#c0c0c0;fill-opacity:1;fill-rule:evenodd;stroke:#c0c0c0;stroke-width:0.902398;stroke-linecap:round;stroke-linejoin:round;stroke-miterlimit:10;stroke-dasharray:none;stroke-opacity:1" />
    <path
       id="path426"
       d="m 124.51627,96.931306 h 20.30404"
       style="fill:none;stroke:#000000;stroke-width:0.902398;stroke-linecap:round;stroke-linejoin:round;stroke-miterlimit:10;stroke-dasharray:none;stroke-opacity:1" />
    <path
       id="path427"
       d="M 144.82031,96.931306 V 124.00336"
       style="fill:none;stroke:#000000;stroke-width:0.902398;stroke-linecap:round;stroke-linejoin:round;stroke-miterlimit:10;stroke-dasharray:none;stroke-opacity:1" />
    <path
       id="path428"
       d="M 144.82031,124.00336 H 124.51627"
       style="fill:none;stroke:#000000;stroke-width:0.902398;stroke-linecap:round;stroke-linejoin:round;stroke-miterlimit:10;stroke-dasharray:none;stroke-opacity:1" />
    <path
       id="path429"
       d="M 124.51627,124.00336 V 96.931306"
       style="fill:none;stroke:#000000;stroke-width:0.902398;stroke-linecap:round;stroke-linejoin:round;stroke-miterlimit:10;stroke-dasharray:none;stroke-opacity:1" />
    <path
       id="path430"
       d="m 133.1239,102.47877 -2.86409,1.23374 v -0.52865 l 2.26926,-0.94729 -2.26926,-0.94736 v -0.52865 l 2.86409,1.21175 z m 0,0"
       style="fill:#000000;fill-opacity:1;fill-rule:nonzero;stroke:none;stroke-width:1.41"
       aria-label="&gt;    " />
    <path
       id="path431"
       d="m 133.1239,105.43094 h -2.86409 v -0.48439 h 2.86409 z m 0,1.3219 h -2.86409 v -0.50679 h 2.86409 z m 0,0"
       style="fill:#000000;fill-opacity:1;fill-rule:nonzero;stroke:none;stroke-width:1.41"
       aria-label="=    " />
    <path
       id="path432"
       d="m 136.2413,105.72845 h -0.52865 v -3.39288 c -0.12085,0.12085 -0.28604,0.24234 -0.50681,0.37465 -0.2093,0.12085 -0.39116,0.2093 -0.55075,0.26439 v -0.50681 c 0.29192,-0.14319 0.55075,-0.31395 0.77108,-0.50681 0.23133,-0.20343 0.39645,-0.40181 0.48439,-0.59485 h 0.33047 z m 0,0"
       style="fill:#000000;fill-opacity:1;fill-rule:nonzero;stroke:none;stroke-width:1.41"
       aria-label="1    " />
    <path
       id="path433"
       d="m 80.491161,93.148509 v -0.528652 h 1.630273 v 0.528652 z m 4.92397,-3.040332 h 0.572827 v 2.511569 c 0,0.440712 -0.05465,0.78764 -0.153799,1.035461 -0.08807,0.253729 -0.264374,0.457232 -0.528652,0.616892 -0.252985,0.165235 -0.589347,0.242341 -1.013444,0.242341 -0.396504,0 -0.727006,-0.06605 -0.991396,-0.198292 -0.253729,-0.143187 -0.434867,-0.352139 -0.550826,-0.616876 -0.104222,-0.264389 -0.153799,-0.622404 -0.153799,-1.079557 v -2.51157 h 0.572795 v 2.51157 c 0,0.369324 0.02566,0.64998 0.08775,0.8372 0.07159,0.176259 0.187267,0.319098 0.352138,0.418901 0.176244,0.08775 0.385797,0.132258 0.638877,0.132258 0.424223,0 0.727086,-0.09361 0.903298,-0.286041 0.176259,-0.186904 0.264373,-0.556307 0.264373,-1.10159 z m 3.794883,3.833483 v 0.506793 h -2.864041 c 0,-0.132258 0.02202,-0.253 0.06605,-0.374646 0.07159,-0.186903 0.187267,-0.379968 0.352138,-0.57278 0.159723,-0.186903 0.396457,-0.407671 0.704974,-0.660956 0.467908,-0.379969 0.782128,-0.682942 0.947315,-0.903298 0.15974,-0.231333 0.242357,-0.451388 0.242357,-0.660909 0,-0.203424 -0.07714,-0.379985 -0.219944,-0.528652 -0.148731,-0.143187 -0.347007,-0.21996 -0.594828,-0.21996 -0.253001,0 -0.457264,0.08268 -0.616924,0.242357 -0.14873,0.148731 -0.219944,0.363527 -0.219944,0.638924 l -0.550763,-0.06605 c 0.02566,-0.407672 0.165251,-0.715999 0.41887,-0.925299 0.247853,-0.219944 0.578323,-0.33047 0.99138,-0.33047 0.407702,0 0.73255,0.120853 0.969395,0.352138 0.247852,0.236465 0.374614,0.523314 0.374614,0.859233 0,0.176244 -0.03754,0.352139 -0.110083,0.528651 -0.06066,0.165236 -0.176243,0.341479 -0.352138,0.528652 -0.165236,0.176243 -0.434868,0.429498 -0.8152,0.749071 -0.324974,0.264373 -0.528652,0.45191 -0.61686,0.550747 -0.08807,0.08775 -0.165236,0.186903 -0.219945,0.286786 z m 0,0"
       style="fill:#000000;fill-opacity:1;fill-rule:nonzero;stroke:none;stroke-width:1.41"
       aria-label="  -U2" />
    <path
       id="path435"
       d="m 70.372117,103.6993 h 6.768057"
       style="fill:none;stroke:#000000;stroke-width:0.902398;stroke-linecap:round;stroke-linejoin:round;stroke-miterlimit:10;stroke-dasharray:none;stroke-opacity:1" />
    <path
       id="path436"
       d="m 101.95625,103.6993 h 2.25593"
       style="fill:none;stroke:#000000;stroke-width:0.902398;stroke-linecap:round;stroke-linejoin:round;stroke-miterlimit:10;stroke-dasharray:none;stroke-opacity:1" />
    <path
       id="path437"
       d="M 77.140174,96.931306 H 97.444232 V 110.46731 H 77.140174 Z"
       style="fill:#c0c0c0;fill-opacity:1;fill-rule:evenodd;stroke:#c0c0c0;stroke-width:0.902398;stroke-linecap:round;stroke-linejoin:round;stroke-miterlimit:10;stroke-dasharray:none;stroke-opacity:1" />
    <path
       id="path438"
       d="m 101.73061,103.58649 c 0,-1.17028 -0.95882,-2.14324 -2.143214,-2.14324 -1.184413,0 -2.143164,0.97296 -2.143164,2.14324 0,1.17029 0.958751,2.1432 2.143164,2.1432 1.184394,0 2.143214,-0.97291 2.143214,-2.1432 z"
       style="fill:#c0c0c0;fill-opacity:1;fill-rule:evenodd;stroke:#c0c0c0;stroke-width:0.902398;stroke-linecap:round;stroke-linejoin:round;stroke-miterlimit:10;stroke-dasharray:none;stroke-opacity:1" />
    <path
       id="path439"
       d="M 77.140174,96.931306 H 97.444232"
       style="fill:none;stroke:#000000;stroke-width:0.902398;stroke-linecap:round;stroke-linejoin:round;stroke-miterlimit:10;stroke-dasharray:none;stroke-opacity:1" />
    <path
       id="path440"
       d="M 97.444232,96.931306 V 110.46731"
       style="fill:none;stroke:#000000;stroke-width:0.902398;stroke-linecap:round;stroke-linejoin:round;stroke-miterlimit:10;stroke-dasharray:none;stroke-opacity:1" />
    <path
       id="path441"
       d="M 97.444232,110.46731 H 77.140174"
       style="fill:none;stroke:#000000;stroke-width:0.902398;stroke-linecap:round;stroke-linejoin:round;stroke-miterlimit:10;stroke-dasharray:none;stroke-opacity:1" />
    <path
       id="path442"
       d="M 77.140174,110.46731 V 96.931306"
       style="fill:none;stroke:#000000;stroke-width:0.902398;stroke-linecap:round;stroke-linejoin:round;stroke-miterlimit:10;stroke-dasharray:none;stroke-opacity:1" />
    <path
       id="path443"
       d="m 101.73061,103.58649 c 0,-1.17028 -0.95882,-2.14324 -2.143214,-2.14324 -1.184413,0 -2.143164,0.97296 -2.143164,2.14324 0,1.17029 0.958751,2.1432 2.143164,2.1432 1.184394,0 2.143214,-0.97291 2.143214,-2.1432 z"
       style="fill:none;stroke:#000000;stroke-width:0.902398;stroke-linecap:round;stroke-linejoin:round;stroke-miterlimit:10;stroke-dasharray:none;stroke-opacity:1" />
    <path
       id="path444"
       d="m 60.183792,154.05951 v -0.52865 h 1.63032 v 0.52865 z m 4.92397,-3.04033 h 0.572827 v 2.51157 c 0,0.44074 -0.05464,0.78767 -0.153799,1.03552 -0.08775,0.253 -0.264374,0.45724 -0.528636,0.61686 -0.253001,0.16524 -0.589347,0.24234 -1.01346,0.24234 -0.396457,0 -0.727054,-0.066 -0.991348,-0.19829 -0.253745,-0.14318 -0.434867,-0.35214 -0.550842,-0.61684 -0.104223,-0.26437 -0.153799,-0.62239 -0.153799,-1.07956 v -2.51157 h 0.572827 v 2.51157 c 0,0.36929 0.02566,0.64995 0.08775,0.83722 0.07159,0.17624 0.186904,0.31908 0.352139,0.41833 0.176259,0.0877 0.385813,0.13226 0.638893,0.13226 0.424207,0 0.72707,-0.0936 0.903297,-0.28605 0.176244,-0.1869 0.264374,-0.5563 0.264374,-1.10158 z m 0.996939,3.19456 0.572827,-0.0426 c 0.04261,0.28091 0.137327,0.48445 0.286042,0.61692 0.143187,0.13226 0.33047,0.1983 0.550747,0.1983 0.247853,0 0.462554,-0.0939 0.638925,-0.28679 0.176243,-0.18689 0.264373,-0.44602 0.264373,-0.77107 0,-0.29192 -0.08775,-0.52864 -0.264373,-0.70497 -0.165236,-0.17625 -0.385845,-0.26438 -0.66091,-0.26438 -0.165251,0 -0.319098,0.0374 -0.462602,0.11056 -0.132099,0.0771 -0.24234,0.17624 -0.33047,0.30844 l -0.484397,-0.066 0.418854,-2.22512 h 2.159035 v 0.5068 h -1.740435 l -0.219944,1.16768 c 0.247853,-0.1869 0.517992,-0.28604 0.8152,-0.28604 0.363527,0 0.68291,0.1321 0.947283,0.39649 0.264389,0.26437 0.396505,0.60587 0.396505,1.01346 0,0.39646 -0.120854,0.73801 -0.352868,1.01341 -0.280909,0.35214 -0.655413,0.52865 -1.12359,0.52865 -0.396488,0 -0.721494,-0.11024 -0.969347,-0.33047 -0.253001,-0.21994 -0.396505,-0.51213 -0.440744,-0.88126 z m 0,0"
       style="fill:#000000;fill-opacity:1;fill-rule:nonzero;stroke:none;stroke-width:1.41"
       aria-label="  -U5" />
    <path
       id="path446"
       d="m 50.068075,164.61143 h 6.768056"
       style="fill:none;stroke:#000000;stroke-width:0.902398;stroke-linecap:round;stroke-linejoin:round;stroke-miterlimit:10;stroke-dasharray:none;stroke-opacity:1" />
    <path
       id="path447"
       d="m 81.652164,164.61143 h 2.256003"
       style="fill:none;stroke:#000000;stroke-width:0.902398;stroke-linecap:round;stroke-linejoin:round;stroke-miterlimit:10;stroke-dasharray:none;stroke-opacity:1" />
    <path
       id="path448"
       d="m 56.836131,157.84342 h 20.304043 v 13.53603 H 56.836131 Z"
       style="fill:#c0c0c0;fill-opacity:1;fill-rule:evenodd;stroke:#c0c0c0;stroke-width:0.902398;stroke-linecap:round;stroke-linejoin:round;stroke-miterlimit:10;stroke-dasharray:none;stroke-opacity:1" />
    <path
       id="path449"
       d="m 81.426597,164.49862 c 0,-1.17028 -0.95883,-2.14323 -2.143259,-2.14323 -1.184382,0 -2.143164,0.97295 -2.143164,2.14323 0,1.1703 0.958782,2.14321 2.143164,2.14321 1.184429,0 2.143259,-0.97291 2.143259,-2.14321 z"
       style="fill:#c0c0c0;fill-opacity:1;fill-rule:evenodd;stroke:#c0c0c0;stroke-width:0.902398;stroke-linecap:round;stroke-linejoin:round;stroke-miterlimit:10;stroke-dasharray:none;stroke-opacity:1" />
    <path
       id="path450"
       d="M 56.836131,157.84342 H 77.140174"
       style="fill:none;stroke:#000000;stroke-width:0.902398;stroke-linecap:round;stroke-linejoin:round;stroke-miterlimit:10;stroke-dasharray:none;stroke-opacity:1" />
    <path
       id="path451"
       d="m 77.140174,157.84342 v 13.53603"
       style="fill:none;stroke:#000000;stroke-width:0.902398;stroke-linecap:round;stroke-linejoin:round;stroke-miterlimit:10;stroke-dasharray:none;stroke-opacity:1" />
    <path
       id="path452"
       d="M 77.140174,171.37945 H 56.836131"
       style="fill:none;stroke:#000000;stroke-width:0.902398;stroke-linecap:round;stroke-linejoin:round;stroke-miterlimit:10;stroke-dasharray:none;stroke-opacity:1" />
    <path
       id="path453"
       d="M 56.836131,171.37945 V 157.84342"
       style="fill:none;stroke:#000000;stroke-width:0.902398;stroke-linecap:round;stroke-linejoin:round;stroke-miterlimit:10;stroke-dasharray:none;stroke-opacity:1" />
    <path
       id="path454"
       d="m 81.426597,164.49862 c 0,-1.17028 -0.95883,-2.14323 -2.143259,-2.14323 -1.184382,0 -2.143164,0.97295 -2.143164,2.14323 0,1.1703 0.958782,2.14321 2.143164,2.14321 1.184429,0 2.143259,-0.97291 2.143259,-2.14321 z"
       style="fill:none;stroke:#000000;stroke-width:0.902398;stroke-linecap:round;stroke-linejoin:round;stroke-miterlimit:10;stroke-dasharray:none;stroke-opacity:1" />
    <path
       id="path455"
       d="m 94.023853,126.98857 v -0.52865 h 1.630304 v 0.52865 z m 4.924001,-3.04033 h 0.572827 v 2.51158 c 0,0.44075 -0.05464,0.78766 -0.153799,1.03553 -0.08775,0.25298 -0.264389,0.45721 -0.528652,0.61684 -0.253,0.16524 -0.589347,0.24234 -1.013428,0.24234 -0.396488,0 -0.72707,-0.0661 -0.99138,-0.19827 -0.253729,-0.14319 -0.434867,-0.35214 -0.550826,-0.61686 -0.104222,-0.26438 -0.153799,-0.62239 -0.153799,-1.07955 v -2.51157 h 0.572827 v 2.51157 c 0,0.3693 0.02566,0.64994 0.08775,0.8372 0.07128,0.17626 0.186888,0.3191 0.352139,0.41835 0.176244,0.0877 0.385797,0.13226 0.638909,0.13226 0.424191,0 0.727054,-0.0936 0.903266,-0.28604 0.176259,-0.18691 0.264373,-0.55631 0.264373,-1.10159 z m 2.715346,4.34024 v -1.03552 h -1.894666 v -0.48441 l 1.982826,-2.82001 h 0.44069 v 2.82001 h 0.59486 v 0.48441 h -0.59497 v 1.03552 z m 0,-1.52022 v -1.96074 l -1.36597,1.96074 z m 0,0"
       style="fill:#000000;fill-opacity:1;fill-rule:nonzero;stroke:none;stroke-width:1.41"
       aria-label="  -U4" />
    <path
       id="path458"
       d="m 83.908167,137.53939 h 6.768056"
       style="fill:none;stroke:#000000;stroke-width:0.902398;stroke-linecap:round;stroke-linejoin:round;stroke-miterlimit:10;stroke-dasharray:none;stroke-opacity:1" />
    <path
       id="path459"
       d="m 83.908167,151.07539 h 6.768056"
       style="fill:none;stroke:#000000;stroke-width:0.902398;stroke-linecap:round;stroke-linejoin:round;stroke-miterlimit:10;stroke-dasharray:none;stroke-opacity:1" />
    <path
       id="path460"
       d="m 110.98023,151.07539 h 6.76798"
       style="fill:none;stroke:#000000;stroke-width:0.902398;stroke-linecap:round;stroke-linejoin:round;stroke-miterlimit:10;stroke-dasharray:none;stroke-opacity:1" />
    <path
       id="path461"
       d="m 90.676223,130.77138 h 20.304007 v 27.07204 H 90.676223 Z"
       style="fill:#c0c0c0;fill-opacity:1;fill-rule:evenodd;stroke:#c0c0c0;stroke-width:0.902398;stroke-linecap:round;stroke-linejoin:round;stroke-miterlimit:10;stroke-dasharray:none;stroke-opacity:1" />
    <path
       id="path462"
       d="M 90.676223,130.77138 H 110.98023"
       style="fill:none;stroke:#000000;stroke-width:0.902398;stroke-linecap:round;stroke-linejoin:round;stroke-miterlimit:10;stroke-dasharray:none;stroke-opacity:1" />
    <path
       id="path463"
       d="m 110.98023,130.77138 v 27.07204"
       style="fill:none;stroke:#000000;stroke-width:0.902398;stroke-linecap:round;stroke-linejoin:round;stroke-miterlimit:10;stroke-dasharray:none;stroke-opacity:1" />
    <path
       id="path464"
       d="M 110.98023,157.84342 H 90.676223"
       style="fill:none;stroke:#000000;stroke-width:0.902398;stroke-linecap:round;stroke-linejoin:round;stroke-miterlimit:10;stroke-dasharray:none;stroke-opacity:1" />
    <path
       id="path465"
       d="M 90.676223,157.84342 V 130.77138"
       style="fill:none;stroke:#000000;stroke-width:0.902398;stroke-linecap:round;stroke-linejoin:round;stroke-miterlimit:10;stroke-dasharray:none;stroke-opacity:1" />
    <path
       id="path466"
       d="m 98.975398,139.06174 c -0.176259,0.19278 -0.368769,0.34149 -0.572827,0.44074 -0.2093,0.0877 -0.434867,0.13226 -0.682973,0.13226 -0.440744,0 -0.793104,-0.14319 -1.057493,-0.4407 -0.2093,-0.24785 -0.308438,-0.51801 -0.308438,-0.81521 0,-0.2754 0.07745,-0.51746 0.242356,-0.72701 0.176244,-0.21995 0.440696,-0.40766 0.793104,-0.57283 -0.209316,-0.21994 -0.341494,-0.39649 -0.396472,-0.52863 -0.06067,-0.14319 -0.08807,-0.28606 -0.08807,-0.41835 0,-0.26439 0.09361,-0.49029 0.28677,-0.68296 0.203424,-0.18689 0.462586,-0.28677 0.771072,-0.28677 0.308438,0 0.550763,0.0877 0.727054,0.26437 0.187267,0.17626 0.286041,0.39651 0.286041,0.66099 0,0.413 -0.275397,0.76556 -0.815136,1.05745 l 0.771071,0.99143 c 0.08775,-0.17626 0.159724,-0.37997 0.219944,-0.6169 l 0.550763,0.13226 c -0.104222,0.38531 -0.23648,0.69397 -0.396504,0.9253 0.203424,0.26439 0.429545,0.48444 0.682989,0.66091 l -0.352883,0.44074 c -0.219944,-0.14318 -0.440743,-0.35214 -0.660941,-0.61692 z m -1.079509,-2.26919 c 0.219944,-0.13225 0.358015,-0.24785 0.418299,-0.35213 0.07159,-0.0992 0.110083,-0.21995 0.110083,-0.35214 0,-0.14319 -0.04261,-0.26438 -0.132258,-0.35214 -0.08775,-0.0877 -0.2093,-0.13226 -0.352138,-0.13226 -0.148731,0 -0.275398,0.0426 -0.374647,0.13226 -0.08775,0.0877 -0.132258,0.19827 -0.132258,0.33047 0,0.0771 0.01109,0.14873 0.04261,0.21996 0.04261,0.0771 0.09915,0.1538 0.176244,0.24234 z m 0.726975,1.85059 -0.969363,-1.21166 c -0.28091,0.16523 -0.473753,0.31908 -0.572828,0.46255 -0.104222,0.14873 -0.153799,0.29743 -0.153799,0.44075 0,0.17624 0.06605,0.36351 0.198276,0.55078 0.143187,0.19277 0.341495,0.28605 0.59486,0.28605 0.159723,0 0.319826,-0.0481 0.484396,-0.1538 0.17626,-0.0992 0.31395,-0.22583 0.418901,-0.37466 z m 0,0"
       style="fill:#000000;fill-opacity:1;fill-rule:nonzero;stroke:none;stroke-width:1.41"
       aria-label="&amp;    " />
    <path
       id="path467"
       d="m 10.018509,103.47571 v -4.340163 h 0.572824 v 4.340163 z m 1.062991,-1.1456 0.572824,-0.0426 c 0.04259,0.28089 0.137326,0.48439 0.286044,0.61687 0.143203,0.13226 0.330474,0.1983 0.550828,0.1983 0.247856,0 0.462555,-0.0936 0.638882,-0.28605 0.176253,-0.1869 0.26438,-0.44603 0.26438,-0.77107 0,-0.29191 -0.08813,-0.52865 -0.26438,-0.70502 -0.165238,-0.17626 -0.385811,-0.26437 -0.660951,-0.26437 -0.165236,0 -0.319091,0.0375 -0.46259,0.11024 -0.132195,0.0774 -0.242349,0.17624 -0.330475,0.30844 l -0.484403,-0.066 0.418858,-2.225198 h 2.159103 v 0.506793 h -1.740501 l -0.219951,1.167685 c 0.247858,-0.1869 0.517488,-0.28678 0.815173,-0.28678 0.363523,0 0.682982,0.13225 0.947361,0.3965 0.26438,0.26437 0.39646,0.60587 0.39646,1.01341 0,0.39651 -0.120806,0.73803 -0.35214,1.01346 -0.280903,0.35214 -0.655442,0.52865 -1.123578,0.52865 -0.396496,0 -0.721573,-0.11008 -0.969393,-0.33047 -0.253731,-0.21996 -0.396496,-0.51213 -0.440707,-0.88123 z m 0,0"
       style="fill:#000000;fill-opacity:1;fill-rule:nonzero;stroke:none;stroke-width:1.41"
       aria-label="   I5" />
    <path
       id="path469"
       d="M 36.532036,103.6993 H 29.764094"
       style="fill:none;stroke:#000000;stroke-width:0.902398;stroke-linecap:round;stroke-linejoin:round;stroke-miterlimit:10;stroke-dasharray:none;stroke-opacity:1" />
    <path
       id="path470"
       d="M 29.764094,103.6993 22.996077,99.187278"
       style="fill:none;stroke:#000000;stroke-width:0.902398;stroke-linecap:round;stroke-linejoin:round;stroke-miterlimit:10;stroke-dasharray:none;stroke-opacity:1" />
    <path
       id="path471"
       d="m 29.764094,103.6993 -6.768017,4.51204"
       style="fill:none;stroke:#000000;stroke-width:0.902398;stroke-linecap:round;stroke-linejoin:round;stroke-miterlimit:10;stroke-dasharray:none;stroke-opacity:1" />
    <path
       id="path472"
       d="M 22.996077,99.187278 H 16.228024"
       style="fill:none;stroke:#000000;stroke-width:0.902398;stroke-linecap:round;stroke-linejoin:round;stroke-miterlimit:10;stroke-dasharray:none;stroke-opacity:1" />
    <path
       id="path473"
       d="M 22.996077,108.21134 H 16.228024"
       style="fill:none;stroke:#000000;stroke-width:0.902398;stroke-linecap:round;stroke-linejoin:round;stroke-miterlimit:10;stroke-dasharray:none;stroke-opacity:1" />
    <path
       id="path474"
       d="m 16.228024,99.187278 v 9.024062"
       style="fill:none;stroke:#000000;stroke-width:0.902398;stroke-linecap:round;stroke-linejoin:round;stroke-miterlimit:10;stroke-dasharray:none;stroke-opacity:1" />
    <path
       id="path475"
       d="m 18.726413,103.59137 c 0,-0.51211 0.0481,-0.92533 0.154227,-1.23374 0.115675,-0.31982 0.275396,-0.5618 0.484403,-0.72703 0.204161,-0.17626 0.468429,-0.26439 0.793141,-0.26439 0.219948,0 0.418858,0.0546 0.594854,0.1538 0.176253,0.0877 0.319825,0.21996 0.440706,0.39647 0.115674,0.17624 0.203427,0.39649 0.264381,0.66097 0.07123,0.253 0.110162,0.58932 0.110162,1.01346 0,0.51745 -0.05471,0.9253 -0.153847,1.23374 -0.104285,0.30845 -0.264379,0.55076 -0.484402,0.727 -0.209301,0.16524 -0.462555,0.24236 -0.771145,0.24236 -0.429507,0 -0.760019,-0.14319 -0.991351,-0.44071 -0.297428,-0.36353 -0.440744,-0.95291 -0.440744,-1.7625 z m 0.550792,0 c 0,0.70502 0.07711,1.17866 0.242349,1.41 0.176253,0.23646 0.385848,0.35286 0.638918,0.35286 0.231332,0 0.429543,-0.11562 0.594855,-0.35286 0.176253,-0.23134 0.264379,-0.70498 0.264379,-1.41 0,-0.71598 -0.08777,-1.19521 -0.264379,-1.43201 -0.165237,-0.23133 -0.36881,-0.35214 -0.61685,-0.35214 -0.236474,0 -0.429545,0.10422 -0.57286,0.30844 -0.192777,0.26437 -0.286045,0.76009 -0.286045,1.47612 z m 0,0"
       style="fill:#000000;fill-opacity:1;fill-rule:nonzero;stroke:none;stroke-width:1.41"
       aria-label="0    " />
    <path
       id="path476"
       d="m 10.018509,164.3867 v -4.34015 h 0.572824 v 4.34015 z m 2.781425,0 v -1.03552 h -1.894651 v -0.4844 l 1.982814,-2.81998 h 0.440707 v 2.81998 h 0.594855 v 0.4844 h -0.594855 v 1.03552 z m 0,-1.52017 v -1.96075 l -1.36589,1.96075 z m 0,0"
       style="fill:#000000;fill-opacity:1;fill-rule:nonzero;stroke:none;stroke-width:1.41"
       aria-label="   I4" />
    <path
       id="path478"
       d="M 36.532036,164.61143 H 29.764094"
       style="fill:none;stroke:#000000;stroke-width:0.902398;stroke-linecap:round;stroke-linejoin:round;stroke-miterlimit:10;stroke-dasharray:none;stroke-opacity:1" />
    <path
       id="path479"
       d="m 29.764094,164.61143 -6.768017,-4.51198"
       style="fill:none;stroke:#000000;stroke-width:0.902398;stroke-linecap:round;stroke-linejoin:round;stroke-miterlimit:10;stroke-dasharray:none;stroke-opacity:1" />
    <path
       id="path480"
       d="m 29.764094,164.61143 -6.768017,4.51205"
       style="fill:none;stroke:#000000;stroke-width:0.902398;stroke-linecap:round;stroke-linejoin:round;stroke-miterlimit:10;stroke-dasharray:none;stroke-opacity:1" />
    <path
       id="path481"
       d="M 22.996077,160.09945 H 16.228024"
       style="fill:none;stroke:#000000;stroke-width:0.902398;stroke-linecap:round;stroke-linejoin:round;stroke-miterlimit:10;stroke-dasharray:none;stroke-opacity:1" />
    <path
       id="path482"
       d="M 22.996077,169.12348 H 16.228024"
       style="fill:none;stroke:#000000;stroke-width:0.902398;stroke-linecap:round;stroke-linejoin:round;stroke-miterlimit:10;stroke-dasharray:none;stroke-opacity:1" />
    <path
       id="path483"
       d="m 16.228024,160.09945 v 9.02403"
       style="fill:none;stroke:#000000;stroke-width:0.902398;stroke-linecap:round;stroke-linejoin:round;stroke-miterlimit:10;stroke-dasharray:none;stroke-opacity:1" />
    <path
       id="path484"
       d="m 18.726413,164.50241 c 0,-0.51212 0.0481,-0.92537 0.154227,-1.23377 0.115675,-0.31983 0.275396,-0.56177 0.484403,-0.72704 0.204161,-0.17626 0.468429,-0.26439 0.793141,-0.26439 0.219948,0 0.418858,0.0547 0.594854,0.1538 0.176253,0.0877 0.319825,0.21994 0.440706,0.39649 0.115674,0.17626 0.203427,0.39645 0.264381,0.66095 0.07123,0.25299 0.110162,0.5893 0.110162,1.01345 0,0.51745 -0.05471,0.9253 -0.153847,1.23374 -0.104285,0.30845 -0.264379,0.55079 -0.484402,0.72702 -0.209301,0.16523 -0.462555,0.24234 -0.771145,0.24234 -0.429507,0 -0.760019,-0.14319 -0.991351,-0.44075 -0.297428,-0.36352 -0.440744,-0.9529 -0.440744,-1.76249 z m 0.550792,0 c 0,0.70497 0.07711,1.17863 0.242349,1.40999 0.176253,0.23647 0.385848,0.35214 0.638918,0.35214 0.231332,0 0.429543,-0.11563 0.594855,-0.35214 0.176253,-0.23133 0.264379,-0.70502 0.264379,-1.40999 0,-0.71603 -0.08777,-1.19522 -0.264379,-1.43206 -0.165237,-0.23134 -0.36881,-0.35214 -0.61685,-0.35214 -0.236474,0 -0.429545,0.10422 -0.57286,0.30845 -0.192777,0.26437 -0.286045,0.76008 -0.286045,1.47611 z m 0,0"
       style="fill:#000000;fill-opacity:1;fill-rule:nonzero;stroke:none;stroke-width:1.41"
       aria-label="0    " />
    <path
       id="path485"
       d="m 10.018509,137.31577 v -4.34016 h 0.572824 v 4.34016 z m 3.861012,-0.50681 v 0.50681 h -2.864115 c 0,-0.13226 0.02203,-0.253 0.0661,-0.37464 0.07161,-0.18691 0.186902,-0.37999 0.35214,-0.57275 0.15973,-0.18727 0.396497,-0.4077 0.705012,-0.66099 0.468431,-0.37998 0.782088,-0.68294 0.947363,-0.9033 0.159729,-0.23133 0.242347,-0.4514 0.242347,-0.66092 0,-0.20343 -0.0771,-0.37997 -0.219949,-0.52864 -0.148715,-0.14319 -0.346999,-0.21996 -0.594818,-0.21996 -0.252998,0 -0.457267,0.0827 -0.616849,0.24236 -0.148715,0.14873 -0.220684,0.36351 -0.220684,0.63891 l -0.550755,-0.066 c 0.02571,-0.40769 0.165236,-0.71603 0.418345,-0.92533 0.247856,-0.21995 0.578293,-0.33047 0.991424,-0.33047 0.407696,0 0.732479,0.12085 0.969357,0.35214 0.247856,0.23648 0.374648,0.52332 0.374648,0.85923 0,0.17626 -0.03746,0.35214 -0.110162,0.52865 -0.06059,0.16523 -0.176253,0.34149 -0.352139,0.52865 -0.165237,0.17626 -0.434869,0.42955 -0.815135,0.74907 -0.324968,0.26439 -0.528686,0.45191 -0.616923,0.55076 -0.08777,0.0877 -0.165237,0.18691 -0.219949,0.28677 z m 0,0"
       style="fill:#000000;fill-opacity:1;fill-rule:nonzero;stroke:none;stroke-width:1.41"
       aria-label="   I2" />
    <path
       id="path487"
       d="M 36.532036,137.53939 H 29.764094"
       style="fill:none;stroke:#000000;stroke-width:0.902398;stroke-linecap:round;stroke-linejoin:round;stroke-miterlimit:10;stroke-dasharray:none;stroke-opacity:1" />
    <path
       id="path488"
       d="m 29.764094,137.53939 -6.768017,-4.51205"
       style="fill:none;stroke:#000000;stroke-width:0.902398;stroke-linecap:round;stroke-linejoin:round;stroke-miterlimit:10;stroke-dasharray:none;stroke-opacity:1" />
    <path
       id="path489"
       d="m 29.764094,137.53939 -6.768017,4.51201"
       style="fill:none;stroke:#000000;stroke-width:0.902398;stroke-linecap:round;stroke-linejoin:round;stroke-miterlimit:10;stroke-dasharray:none;stroke-opacity:1" />
    <path
       id="path490"
       d="M 22.996077,133.02734 H 16.228024"
       style="fill:none;stroke:#000000;stroke-width:0.902398;stroke-linecap:round;stroke-linejoin:round;stroke-miterlimit:10;stroke-dasharray:none;stroke-opacity:1" />
    <path
       id="path491"
       d="M 22.996077,142.0514 H 16.228024"
       style="fill:none;stroke:#000000;stroke-width:0.902398;stroke-linecap:round;stroke-linejoin:round;stroke-miterlimit:10;stroke-dasharray:none;stroke-opacity:1" />
    <path
       id="path492"
       d="m 16.228024,133.02734 v 9.02406"
       style="fill:none;stroke:#000000;stroke-width:0.902398;stroke-linecap:round;stroke-linejoin:round;stroke-miterlimit:10;stroke-dasharray:none;stroke-opacity:1" />
    <path
       id="path493"
       d="m 18.726413,137.43148 c 0,-0.51213 0.0481,-0.92538 0.154227,-1.23379 0.115675,-0.31982 0.275396,-0.56177 0.484403,-0.72703 0.204161,-0.17626 0.468429,-0.26438 0.793141,-0.26438 0.219948,0 0.418858,0.0547 0.594854,0.1538 0.176253,0.0877 0.319825,0.21995 0.440706,0.39649 0.115674,0.17626 0.203427,0.39646 0.264381,0.66096 0.07123,0.25298 0.110162,0.5893 0.110162,1.01344 0,0.51801 -0.05471,0.9253 -0.153847,1.23374 -0.104285,0.30845 -0.264379,0.55079 -0.484402,0.72702 -0.209301,0.16524 -0.462555,0.24234 -0.771145,0.24234 -0.429507,0 -0.760019,-0.14319 -0.991351,-0.44074 -0.297428,-0.36353 -0.440744,-0.95291 -0.440744,-1.7625 z m 0.550792,0 c 0,0.70497 0.07711,1.17865 0.242349,1.40998 0.176253,0.23648 0.385848,0.35214 0.638918,0.35214 0.231332,0 0.429543,-0.11563 0.594855,-0.35214 0.176253,-0.23133 0.264379,-0.70501 0.264379,-1.40998 0,-0.71603 -0.08777,-1.19522 -0.264379,-1.43206 -0.165237,-0.23133 -0.36881,-0.35288 -0.61685,-0.35288 -0.236474,0 -0.429545,0.10469 -0.57286,0.30845 -0.192777,0.26437 -0.286045,0.76009 -0.286045,1.47608 z m 0,0"
       style="fill:#000000;fill-opacity:1;fill-rule:nonzero;stroke:none;stroke-width:1.41"
       aria-label="0    " />
    <path
       id="path667"
       d="m 151.58826,117.23535 h 13.53607"
       style="fill:none;stroke:#ff0000;stroke-width:1.3536;stroke-linecap:round;stroke-linejoin:round;stroke-miterlimit:10;stroke-dasharray:none;stroke-opacity:1" />
    <path
       id="path668"
       d="m 117.74821,117.23535 v 33.84004"
       style="fill:none;stroke:#ff0000;stroke-width:1.3536;stroke-linecap:round;stroke-linejoin:round;stroke-miterlimit:10;stroke-dasharray:none;stroke-opacity:1" />
    <path
       id="path669"
       d="m 104.21218,103.6993 h 13.53603"
       style="fill:none;stroke:#ff0000;stroke-width:1.3536;stroke-linecap:round;stroke-linejoin:round;stroke-miterlimit:10;stroke-dasharray:none;stroke-opacity:1" />
    <path
       id="path670"
       d="m 83.908167,151.07539 v 13.53604"
       style="fill:none;stroke:#ff0000;stroke-width:1.3536;stroke-linecap:round;stroke-linejoin:round;stroke-miterlimit:10;stroke-dasharray:none;stroke-opacity:1" />
    <path
       id="path671"
       d="M 36.532036,103.6993 H 70.372117"
       style="fill:none;stroke:#ff0000;stroke-width:1.3536;stroke-linecap:round;stroke-linejoin:round;stroke-miterlimit:10;stroke-dasharray:none;stroke-opacity:1" />
    <path
       id="path672"
       d="M 36.532036,137.53939 H 83.908167"
       style="fill:none;stroke:#ff0000;stroke-width:1.3536;stroke-linecap:round;stroke-linejoin:round;stroke-miterlimit:10;stroke-dasharray:none;stroke-opacity:1" />
    <path
       id="path673"
       d="M 36.532036,164.61143 H 50.068075"
       style="fill:none;stroke:#ff0000;stroke-width:1.3536;stroke-linecap:round;stroke-linejoin:round;stroke-miterlimit:10;stroke-dasharray:none;stroke-opacity:1" />
    <path
       id="path674"
       d="m 104.21218,56.323223 h 27.0721"
       style="fill:none;stroke:#ff0000;stroke-width:1.3536;stroke-linecap:round;stroke-linejoin:round;stroke-miterlimit:10;stroke-dasharray:none;stroke-opacity:1" />
    <path
       id="path675"
       d="M 36.532036,56.323223 H 70.372117"
       style="fill:none;stroke:#000000;stroke-width:0.902398;stroke-linecap:round;stroke-linejoin:round;stroke-miterlimit:10;stroke-dasharray:none;stroke-opacity:1" />
    <path
       id="path676"
       d="m 131.28428,56.323223 h 33.84005"
       style="fill:none;stroke:#ff0000;stroke-width:1.3536;stroke-linecap:round;stroke-linejoin:round;stroke-miterlimit:10;stroke-dasharray:none;stroke-opacity:1" />
  </g>
</svg>
